<svg width="18" height="16" viewBox="0 0 18 16" fill="none" xmlns="http://www.w3.org/2000/svg">
<path d="M10.0502 0.479938C9.9069 0.344708 9.71722 0.269552 9.52019 0.269938C9.3239 0.268234 9.13566 0.347873 9.00019 0.489939C8.85724 0.629226 8.77662 0.82035 8.77662 1.01994C8.77662 1.21953 8.85724 1.41065 9.00019 1.54994L14.7003 7.25L1.47998 7.25C1.06577 7.25 0.72998 7.58579 0.72998 8C0.72998 8.41422 1.06577 8.75 1.47998 8.75L14.7024 8.75L8.99019 14.4799C8.84724 14.6192 8.76662 14.8104 8.76662 15.0099C8.76662 15.2095 8.84724 15.4007 8.99019 15.5399C9.28301 15.8324 9.75737 15.8324 10.0502 15.5399L17.0502 8.53994C17.3426 8.24712 17.3426 7.77276 17.0502 7.47994L10.0502 0.479938Z" fill="#282828"/>
</svg>
