<svg width="44" height="44" viewBox="0 0 44 44" fill="none" xmlns="http://www.w3.org/2000/svg">
<rect x="0.772949" y="0.0185547" width="42.5553" height="43.5047" rx="2.007" fill="#02D463"/>
<path d="M22.5922 20.8684L21.8813 22.2916H23.3031L22.5922 20.8684Z" fill="white"/>
<path d="M21.5654 23.3198V26.2846C21.8975 26.3606 22.2394 26.409 22.5941 26.409C22.9488 26.409 23.2908 26.3606 23.6228 26.2846V23.3198H21.5654Z" fill="white"/>
<path d="M22.5941 17.1448C20.0427 17.1448 17.9673 19.2223 17.9673 21.7763C17.9673 23.5873 19.0209 25.1424 20.5377 25.9034V22.8055C20.5377 22.8 20.5406 22.7955 20.5408 22.7901C20.5416 22.7596 20.5757 22.617 20.5878 22.5906C20.5901 22.5857 20.5895 22.5803 20.592 22.5753L22.1342 19.4876C22.309 19.1389 22.8793 19.1389 23.054 19.4876L24.5962 22.5753C24.6074 22.5979 24.6465 22.7562 24.6474 22.7901C24.6476 22.7955 24.6505 22.8 24.6505 22.8055V25.9034C26.1673 25.1424 27.2209 23.5873 27.2209 21.7762C27.2209 19.2223 25.1455 17.1448 22.5941 17.1448Z" fill="white"/>
<path d="M31.0804 20.2861L30.0345 19.78C29.8608 19.1302 29.6022 18.5065 29.2633 17.9201L29.6218 16.8441C29.683 16.6592 29.6349 16.4551 29.4973 16.3174L28.0434 14.862C27.9058 14.7238 27.7015 14.6761 27.5172 14.7374L26.4423 15.0962C25.8565 14.757 25.2334 14.4982 24.5843 14.3243L24.0788 13.2774C23.9914 13.103 23.8137 12.9929 23.6189 12.9929H21.5625C21.3677 12.9929 21.19 13.103 21.1027 13.2774L20.5971 14.3243C19.948 14.4982 19.3249 14.757 18.739 15.0962L17.6642 14.7374C17.4794 14.6761 17.2756 14.7238 17.138 14.8621L15.6841 16.3174C15.5465 16.4551 15.4983 16.6592 15.5596 16.8441L15.9181 17.9201C15.5792 18.5065 15.3206 19.1302 15.1469 19.78L14.101 20.2861C13.9268 20.3735 13.8169 20.5514 13.8169 20.7464V22.8048C13.8169 22.9999 13.9268 23.1777 14.101 23.2652L15.147 23.7713C15.3206 24.421 15.5792 25.0447 15.9181 25.6312L15.5596 26.7071C15.4984 26.8921 15.5466 27.0961 15.6841 27.2338L17.1381 28.6892C17.2756 28.8264 17.4794 28.8752 17.6642 28.8139L18.7391 28.455C19.325 28.7943 19.948 29.0531 20.5971 29.227L21.1027 30.2739C21.19 30.4483 21.3677 30.5583 21.5625 30.5583H23.6189C23.8137 30.5583 23.9914 30.4483 24.0788 30.2739L24.5843 29.2269C25.2334 29.0531 25.8565 28.7942 26.4424 28.455L27.5172 28.8138C27.7015 28.8751 27.9058 28.8264 28.0434 28.6892L29.4973 27.2338C29.6349 27.0961 29.6831 26.8921 29.6218 26.7071L29.2634 25.6312C29.6023 25.0447 29.8608 24.421 30.0345 23.7712L31.0804 23.2652C31.2546 23.1777 31.3645 22.9999 31.3645 22.8048V20.7464C31.3645 20.5514 31.2546 20.3735 31.0804 20.2861ZM22.5907 27.4364C19.4725 27.4364 16.9357 24.897 16.9357 21.7756C16.9357 18.6543 19.4725 16.1149 22.5907 16.1149C25.7089 16.1149 28.2457 18.6543 28.2457 21.7756C28.2457 24.897 25.7089 27.4364 22.5907 27.4364Z" fill="white"/>
</svg>
