<svg width="45" height="44" viewBox="0 0 45 44" fill="none" xmlns="http://www.w3.org/2000/svg">
<path fill-rule="evenodd" clip-rule="evenodd" d="M23.4351 25.2722L40.6584 25.5586C40.6585 28.5716 39.9182 31.5385 38.5027 34.1983C37.0873 36.8581 35.04 39.1295 32.5409 40.8125L23.4351 25.2722ZM39.5914 14.3474V21.072L41.5536 21.1293C41.2995 18.7716 40.6354 16.4765 39.5914 14.3474ZM37.6972 21.0147V11.2286C37.0935 10.4055 36.4292 9.62874 35.7099 8.90466V20.9538L37.6972 21.0147ZM33.8192 20.8929V7.2432C33.1852 6.74411 32.5215 6.28374 31.8319 5.86462V20.85L33.8192 20.9108V20.8929ZM29.9413 20.7748V4.82621C29.293 4.52414 28.6297 4.25524 27.954 4.02055V20.7139L29.9449 20.7748H29.9413ZM26.0598 20.6566V3.46912C25.3723 3.29724 24.692 3.16475 24.0904 3.06449V20.6101L26.0598 20.6709V20.6566ZM21.7271 0.439819C23.6796 0.538402 25.6158 0.845709 27.5028 1.35649C32.1064 2.67911 36.1789 5.41311 39.1462 9.17312C42.1135 12.9331 43.8259 17.5296 44.0422 22.3145L44.0995 23.6L21.7271 22.9125V0.439819ZM19.7398 24.2194L29.5618 41.2315C26.9827 42.7207 24.0988 43.6039 21.1281 43.8145C18.1575 44.0251 15.1778 43.5575 12.4145 42.447C9.65112 41.3366 7.17643 39.6124 5.17753 37.4047C3.17862 35.1971 1.70782 32.5639 0.876353 29.7042C0.0448844 26.8445 -0.12549 23.8332 0.378114 20.898C0.881718 17.9628 2.04612 15.1805 3.78326 12.7615C5.5204 10.3425 7.78482 8.35013 10.4053 6.93508C13.0257 5.52002 15.9336 4.7193 18.9091 4.59347L19.7398 24.2194Z" fill="#9AEEC1"/>
<path fill-rule="evenodd" clip-rule="evenodd" d="M39.5914 14.3474V21.072L41.5536 21.1293C41.2995 18.7716 40.6354 16.4765 39.5914 14.3474ZM37.6972 21.0147V11.2286C37.0935 10.4055 36.4292 9.62874 35.7099 8.90466V20.9538L37.6972 21.0147ZM33.8192 20.8929V7.2432C33.1852 6.74411 32.5215 6.28374 31.8319 5.86462V20.85L33.8192 20.9108V20.8929ZM29.9413 20.7748V4.82621C29.293 4.52414 28.6297 4.25524 27.954 4.02055V20.7139L29.9449 20.7748H29.9413ZM26.0598 20.6566V3.46912C25.3723 3.29724 24.692 3.16475 24.0904 3.06449V20.6101L26.0598 20.6709V20.6566ZM21.7271 0.439819C23.6796 0.538402 25.6158 0.845709 27.5028 1.35649C32.1064 2.67911 36.1789 5.41311 39.1462 9.17312C42.1135 12.9331 43.8259 17.5296 44.0422 22.3145L44.0995 23.6L21.7271 22.9125V0.439819ZM19.7398 24.2194L29.5618 41.2315C26.9827 42.7207 24.0988 43.6039 21.1281 43.8145C18.1575 44.0251 15.1778 43.5575 12.4145 42.447C9.65112 41.3366 7.17643 39.6124 5.17753 37.4047C3.17862 35.1971 1.70782 32.5639 0.876353 29.7042C0.0448844 26.8445 -0.12549 23.8332 0.378114 20.898C0.881718 17.9628 2.04612 15.1805 3.78326 12.7615C5.5204 10.3425 7.78482 8.35013 10.4053 6.93508C13.0257 5.52002 15.9336 4.7193 18.9091 4.59347L19.7398 24.2194Z" fill="#02D463"/>
</svg>
