<svg width="73" height="29" viewBox="0 0 73 29" fill="none" xmlns="http://www.w3.org/2000/svg">
<g clip-path="url(#clip0_533_2471)">
<path d="M40.3343 0L21.7758 16.2178L1.61699 0H40.3343ZM51.5949 22.1581C51.162 22.1837 50.7553 22.3746 50.4578 22.6917C50.1604 23.0088 49.9947 23.4283 49.9947 23.8642C49.9947 24.3 50.1604 24.7195 50.4578 25.0366C50.7553 25.3537 51.162 25.5446 51.5949 25.5702H58.8459C59.2788 25.5446 59.6855 25.3537 59.983 25.0366C60.2804 24.7195 60.4461 24.3 60.4461 23.8642C60.4461 23.4283 60.2804 23.0088 59.983 22.6917C59.6855 22.3746 59.2788 22.1837 58.8459 22.1581H51.5949ZM49.9008 12.7939C49.468 12.8195 49.0612 13.0104 48.7638 13.3276C48.4663 13.6447 48.3007 14.0641 48.3007 14.5C48.3007 14.9359 48.4663 15.3553 48.7638 15.6724C49.0612 15.9896 49.468 16.1805 49.9008 16.2061H64.7722C65.2051 16.1805 65.6118 15.9896 65.9093 15.6724C66.2067 15.3553 66.3724 14.9359 66.3724 14.5C66.3724 14.0641 66.2067 13.6447 65.9093 13.3276C65.6118 13.0104 65.2051 12.8195 64.7722 12.7939H49.9008ZM14.7768 13.0591L2.25593 27.403L0.29808 1.40845L14.7768 13.0591ZM27.0514 14.3556L42.679 29H3.61001L16.3946 14.3615L21.2658 18.2686C21.446 18.4171 21.6718 18.4982 21.9048 18.4982C22.1377 18.4982 22.3635 18.4171 22.5437 18.2686L27.0514 14.3262V14.3556ZM43.6697 27.3205L28.5052 13.1181L41.7294 1.5381L43.6697 27.291V27.3205ZM49.9008 3.42979C49.6783 3.42979 49.458 3.47384 49.2525 3.55943C49.047 3.64502 48.8602 3.77047 48.7029 3.92862C48.5456 4.08677 48.4208 4.27452 48.3357 4.48115C48.2506 4.68778 48.2067 4.90924 48.2067 5.1329C48.2067 5.35656 48.2506 5.57802 48.3357 5.78465C48.4208 5.99128 48.5456 6.17903 48.7029 6.33718C48.8602 6.49533 49.047 6.62078 49.2525 6.70637C49.458 6.79196 49.6783 6.83601 49.9008 6.83601H70.6341C71.0834 6.83601 71.5142 6.65657 71.8319 6.33718C72.1496 6.01778 72.3281 5.58459 72.3281 5.1329C72.3281 4.68121 72.1496 4.24801 71.8319 3.92862C71.5142 3.60923 71.0834 3.42979 70.6341 3.42979H49.9008Z" fill="#9AEEC1"/>
<path d="M40.3343 0L21.7758 16.2178L1.617 0H40.3343ZM14.7768 13.0591L2.25594 27.403L0.29808 1.40845L14.7768 13.0591ZM27.0514 14.3556L42.679 29H3.61002L16.3946 14.3615L21.2658 18.2686C21.446 18.4171 21.6718 18.4982 21.9048 18.4982C22.1377 18.4982 22.3635 18.4171 22.5437 18.2686L27.0514 14.3262V14.3556ZM43.6697 27.3205L28.5052 13.1181L41.7294 1.5381L43.6697 27.291V27.3205Z" fill="#02D463"/>
</g>
<defs>
<clipPath id="clip0_533_2471">
<rect width="72.03" height="29" fill="white" transform="matrix(-1 0 0 1 72.3281 0)"/>
</clipPath>
</defs>
</svg>
