<svg width="37" height="37" viewBox="0 0 37 37" fill="none" xmlns="http://www.w3.org/2000/svg">
<path d="M34.8919 12.6531H20.6676C20.3004 12.6531 19.9483 12.7989 19.6887 13.0584C19.4291 13.3179 19.2832 13.6699 19.2832 14.0369V35.3611C19.2843 35.7278 19.4305 36.0791 19.6899 36.3384C19.9493 36.5976 20.3008 36.7438 20.6676 36.7449H34.8919C35.2588 36.7438 35.6103 36.5976 35.8696 36.3384C36.129 36.0791 36.2752 35.7278 36.2763 35.3611V14.0369C36.2763 13.6699 36.1305 13.3179 35.8708 13.0584C35.6112 12.7989 35.2591 12.6531 34.8919 12.6531Z" fill="#02D463" fill-opacity="0.4"/>
<path d="M34.8919 0.805115H20.6676C20.3004 0.805115 19.9483 0.950906 19.6887 1.21042C19.4291 1.46993 19.2832 1.8219 19.2832 2.18891V9.29466C19.2843 9.66133 19.4305 10.0127 19.6899 10.2719C19.9493 10.5312 20.3008 10.6774 20.6676 10.6785H34.8919C35.2588 10.6774 35.6103 10.5312 35.8696 10.2719C36.129 10.0127 36.2752 9.66133 36.2763 9.29466V2.18891C36.2763 1.8219 36.1305 1.46993 35.8708 1.21042C35.6112 0.950906 35.2591 0.805115 34.8919 0.805115Z" fill="#02D463"/>
<path d="M15.9261 22.1321H1.70859C0.944021 22.1321 0.324219 22.7516 0.324219 23.5159V35.3611C0.324219 36.1254 0.944021 36.7449 1.70859 36.7449H15.9261C16.6906 36.7449 17.3104 36.1254 17.3104 35.3611V23.5159C17.3104 22.7516 16.6906 22.1321 15.9261 22.1321Z" fill="#02D463"/>
<path d="M15.926 0.805123H1.7086C1.52662 0.804483 1.3463 0.839841 1.17805 0.909157C1.0098 0.978472 0.85694 1.08036 0.728262 1.20899C0.599584 1.33761 0.497627 1.49041 0.428283 1.65859C0.358939 1.82677 0.323587 2.00701 0.324227 2.18891V18.746C0.324227 19.113 0.470079 19.4649 0.729698 19.7244C0.989318 19.984 1.34144 20.1297 1.7086 20.1297H15.926C16.2932 20.1297 16.6453 19.984 16.9049 19.7244C17.1646 19.4649 17.3104 19.113 17.3104 18.746V2.18891C17.311 2.00701 17.2757 1.82677 17.2063 1.65859C17.137 1.49041 17.035 1.33761 16.9064 1.20899C16.7777 1.08036 16.6248 0.978472 16.4566 0.909157C16.2883 0.839841 16.108 0.804483 15.926 0.805123Z" fill="#02D463" fill-opacity="0.4"/>
</svg>
