<svg width="44" height="46" viewBox="0 0 44 46" fill="none" xmlns="http://www.w3.org/2000/svg">
<path d="M43.1983 12.2513V34.0534C43.1983 34.8749 42.73 35.6247 41.991 35.9826L22.622 45.3777C22.3264 45.5224 22.0059 45.594 21.6854 45.594C21.3649 45.594 21.046 45.5224 20.7503 45.3777L1.38302 35.9826C0.644027 35.6248 0.175781 34.8749 0.175781 34.0534V12.2513C0.175781 11.8251 0.301761 11.419 0.525815 11.0767C0.734245 10.7578 1.02829 10.4948 1.38302 10.3222L20.7504 0.925549C21.3292 0.645505 22.0028 0.639273 22.5847 0.908481C22.5971 0.913177 22.6096 0.919318 22.622 0.925549L41.9909 10.3223C42.3457 10.4949 42.6397 10.7578 42.8481 11.0768C43.0722 11.419 43.1983 11.8251 43.1983 12.2513Z" fill="#02D463" fill-opacity="0.14"/>
<path d="M42.8485 11.0766C42.6401 10.7577 42.346 10.4948 41.9913 10.3221L22.6223 0.925481C22.6098 0.91925 22.5973 0.913019 22.585 0.908413C22.0031 0.639296 21.3295 0.645527 20.7507 0.925481L19.1719 1.69147L36.9619 10.3221C37.3166 10.4948 37.6107 10.7577 37.8191 11.0766C38.0431 11.4189 38.1691 11.8249 38.1691 12.2512V34.0533C38.1691 34.8747 37.7009 35.6246 36.9619 35.9824L19.1719 44.6116L20.7507 45.3775C21.0463 45.5222 21.3653 45.5938 21.6858 45.5938C22.0063 45.5938 22.3268 45.5223 22.6224 45.3775L41.9913 35.9824C42.7303 35.6246 43.1985 34.8747 43.1985 34.0533V12.2512C43.1985 11.825 43.0725 11.4189 42.8485 11.0766Z" fill="#02D463" fill-opacity="0.15"/>
<path d="M42.8478 11.0767L21.6851 21.3461L0.525391 11.0767C0.733821 10.7578 1.02786 10.4948 1.38259 10.3222L20.75 0.925549C21.3288 0.645504 22.0024 0.639273 22.5843 0.908481C22.5967 0.913177 22.6092 0.919318 22.6216 0.925549L41.9905 10.3223C42.3452 10.4948 42.6393 10.7578 42.8478 11.0767Z" fill="#02D463" fill-opacity="0.4"/>
<path d="M36.9619 10.3221C37.3166 10.4948 37.6107 10.7577 37.8191 11.0766C38.0431 11.4189 38.1691 11.8249 38.1691 12.2512V13.3472L42.8484 11.0765C42.64 10.7577 42.3459 10.4947 41.9912 10.322L22.6223 0.925481C22.6098 0.91925 22.5973 0.913019 22.585 0.908413C22.0031 0.639296 21.3295 0.645527 20.7507 0.925481L19.1719 1.69147L36.9619 10.3221Z" fill="#02D463" fill-opacity="0.4"/>
<path d="M43.1979 12.2514V34.0535C43.1979 34.875 42.7297 35.6248 41.9907 35.9827L22.6216 45.3778C22.3261 45.5225 22.0056 45.5941 21.6851 45.5941V21.3462L42.8479 11.0768C43.0719 11.4191 43.1979 11.8252 43.1979 12.2514Z" fill="#02D463" fill-opacity="0.29"/>
<path d="M42.8478 11.0768L38.1685 13.3475V34.0535C38.1685 34.875 37.7003 35.6248 36.9613 35.9827L21.6851 43.3926V45.5941C22.0056 45.5941 22.3261 45.5226 22.6216 45.3778L41.9906 35.9827C42.7296 35.6249 43.1978 34.875 43.1978 34.0535V12.2514C43.1978 11.8252 43.0718 11.4191 42.8478 11.0768Z" fill="#02D463" fill-opacity="0.33"/>
<path d="M6.32575 32.1847C6.6998 32.1847 7.00306 31.8814 7.00306 31.5073V25.4327C7.00306 25.0586 6.6998 24.7554 6.32575 24.7554C5.95169 24.7554 5.64844 25.0586 5.64844 25.4327V31.5073C5.64844 31.8814 5.95169 32.1847 6.32575 32.1847Z" fill="#02D463"/>
<path d="M6.32577 20.2314C6.69985 20.2314 7.0031 19.9282 7.0031 19.5541C7.0031 19.18 6.69985 18.8768 6.32577 18.8768C5.95169 18.8768 5.64844 19.18 5.64844 19.5541C5.64844 19.9282 5.95169 20.2314 6.32577 20.2314Z" fill="#02D463"/>
<path d="M6.32577 23.0731C6.69985 23.0731 7.0031 22.7698 7.0031 22.3958C7.0031 22.0217 6.69985 21.7184 6.32577 21.7184C5.95169 21.7184 5.64844 22.0217 5.64844 22.3958C5.64844 22.7698 5.95169 23.0731 6.32577 23.0731Z" fill="#02D463"/>
<path d="M9.03329 27.5437C9.40737 27.5437 9.71062 27.2405 9.71062 26.8664C9.71062 26.4923 9.40737 26.1891 9.03329 26.1891C8.65921 26.1891 8.35596 26.4923 8.35596 26.8664C8.35596 27.2405 8.65921 27.5437 9.03329 27.5437Z" fill="#02D463"/>
<path d="M9.03329 30.5814C9.40737 30.5814 9.71062 30.2782 9.71062 29.9041C9.71062 29.53 9.40737 29.2267 9.03329 29.2267C8.65921 29.2267 8.35596 29.53 8.35596 29.9041C8.35596 30.2782 8.65921 30.5814 9.03329 30.5814Z" fill="#02D463"/>
<path d="M9.03329 33.6188C9.40737 33.6188 9.71062 33.3156 9.71062 32.9415C9.71062 32.5674 9.40737 32.2642 9.03329 32.2642C8.65921 32.2642 8.35596 32.5674 8.35596 32.9415C8.35596 33.3156 8.65921 33.6188 9.03329 33.6188Z" fill="#02D463"/>
</svg>
