<svg width="41" height="39" viewBox="0 0 41 39" fill="none" xmlns="http://www.w3.org/2000/svg">
<path d="M40.7019 11.7766C40.7054 12.3819 40.5386 12.976 40.2205 13.4911C39.9025 14.0062 39.4461 14.4215 38.9033 14.6896L22.1708 23.052C21.7205 23.28 21.2228 23.3985 20.7181 23.3979C20.2134 23.3985 19.7157 23.28 19.2655 23.052L2.53291 14.6896C1.99184 14.4214 1.53662 14.0072 1.21876 13.4937C0.900914 12.9803 0.733148 12.3881 0.734399 11.7843C0.732068 11.1792 0.899325 10.5855 1.21722 10.0706C1.53511 9.55574 1.99089 9.14024 2.53291 8.87123L19.2655 0.50882C19.7163 0.283204 20.214 0.167324 20.7181 0.170632C21.2222 0.167324 21.72 0.283204 22.1708 0.50882L38.9033 8.87123C39.4444 9.13938 39.8996 9.55362 40.2174 10.0671C40.5353 10.5805 40.7031 11.1727 40.7019 11.7766Z" fill="#02D463"/>
<path d="M38.9034 16.5803C39.4455 16.8493 39.9013 17.2648 40.2192 17.7797C40.5371 18.2945 40.7043 18.8882 40.702 19.4933C40.7033 20.0972 40.5354 20.6893 40.2176 21.2028C39.8997 21.7162 39.4445 22.1305 38.9034 22.3986L22.1709 30.7687C21.7188 30.9907 21.2219 31.1063 20.7183 31.1069C20.2146 31.1063 19.7177 30.9907 19.2656 30.7687L2.53306 22.3986C1.99291 22.13 1.53882 21.7155 1.22229 21.202C0.905758 20.6884 0.739477 20.0965 0.742241 19.4933C0.738742 18.8879 0.905488 18.2938 1.22351 17.7787C1.54153 17.2636 1.99799 16.8483 2.54075 16.5803L2.70987 16.4957L6.14551 18.2174L18.5815 24.4277C19.245 24.7596 19.9764 24.9333 20.7183 24.935C21.4626 24.9333 22.1965 24.7597 22.8627 24.4277L35.291 18.2174L38.7344 16.4957L38.9034 16.5803Z" fill="#02D463" fill-opacity="0.4"/>
<path d="M38.9035 24.2971C39.4445 24.5652 39.8998 24.9795 40.2176 25.4929C40.5355 26.0064 40.7033 26.5985 40.702 27.2024C40.7033 27.8063 40.5355 28.3984 40.2176 28.9119C39.8998 29.4253 39.4445 29.8396 38.9035 30.1077L22.171 38.4778C21.7207 38.7058 21.223 38.8243 20.7183 38.8237C20.2136 38.8243 19.7159 38.7058 19.2656 38.4778L2.53309 30.1077C1.99294 29.8391 1.53885 29.4246 1.22232 28.9111C0.905789 28.3976 0.739508 27.8056 0.742272 27.2024C0.737887 26.5988 0.903497 26.0062 1.22021 25.4924C1.53693 24.9786 1.99191 24.5644 2.53309 24.2971L2.7099 24.2048L6.15323 25.9265L18.5893 32.1445C19.2509 32.4732 19.9796 32.6442 20.7183 32.6441C21.4594 32.6433 22.1904 32.4724 22.855 32.1445L35.2987 25.9265L38.7267 24.2048L38.9035 24.2971Z" fill="#02D463"/>
</svg>
