<svg width="12" height="22" viewBox="0 0 12 22" fill="none" xmlns="http://www.w3.org/2000/svg">
<path d="M6.08713 22C5.83985 22 5.63121 21.915 5.46121 21.745C5.2912 21.575 5.2062 21.3664 5.2062 21.1191V18.8704L5.64667 19.2877C4.56483 19.2722 3.58344 19.1254 2.70252 18.8472C1.82159 18.569 1.08748 18.2213 0.500197 17.804C0.299284 17.6649 0.16019 17.5026 0.082916 17.3172C0.00564171 17.1163 -0.0175406 16.9231 0.0133691 16.7376C0.0442788 16.5367 0.121553 16.3667 0.245192 16.2276C0.384286 16.0885 0.546562 16.0035 0.73202 15.9726C0.917479 15.9417 1.13385 16.0035 1.38112 16.1581C1.87568 16.4981 2.47842 16.7994 3.18934 17.0622C3.91572 17.3094 4.8121 17.4331 5.87849 17.4331C6.72851 17.4331 7.4317 17.3249 7.98808 17.1085C8.54445 16.8767 8.95401 16.5599 9.21674 16.1581C9.49493 15.7562 9.63402 15.3003 9.63402 14.7903C9.63402 14.3576 9.53357 13.9867 9.33265 13.6776C9.14719 13.3685 8.84582 13.1057 8.42854 12.8894C8.01126 12.673 7.45489 12.4953 6.75942 12.3562L4.39482 11.8462C3.00389 11.5371 1.96068 11.0348 1.26521 10.3393C0.585199 9.62838 0.245192 8.69336 0.245192 7.53425C0.245192 6.63786 0.46156 5.83421 0.894296 5.12329C1.34249 4.41236 1.96068 3.84826 2.74888 3.43098C3.55253 3.0137 4.47982 2.78187 5.53076 2.73551L5.2062 3.06006V0.880927C5.2062 0.633649 5.2912 0.425008 5.46121 0.255005C5.63121 0.0850016 5.83985 0 6.08713 0C6.33441 0 6.54305 0.0850016 6.71305 0.255005C6.88306 0.425008 6.96806 0.633649 6.96806 0.880927V3.06006L6.59714 2.73551C7.32352 2.75097 8.08854 2.90551 8.89219 3.19916C9.69584 3.47734 10.3836 3.87144 10.9554 4.38145C11.1254 4.52055 11.2336 4.68282 11.28 4.86828C11.3418 5.05374 11.3418 5.23147 11.28 5.40147C11.2336 5.57148 11.1409 5.71057 11.0018 5.81876C10.8781 5.92694 10.7159 5.98876 10.5149 6.00421C10.3295 6.00421 10.1208 5.92694 9.88903 5.77239C9.37902 5.40147 8.81491 5.10783 8.19672 4.89146C7.59398 4.6751 6.8676 4.56691 6.01758 4.56691C4.90483 4.56691 4.01618 4.83737 3.35162 5.37829C2.70252 5.90376 2.37796 6.59923 2.37796 7.4647C2.37796 8.14471 2.57888 8.68563 2.9807 9.08746C3.39798 9.47383 4.07027 9.76747 4.99756 9.96839L7.40852 10.5016C8.89219 10.8107 9.98948 11.3052 10.7004 11.9852C11.4113 12.6498 11.7668 13.5462 11.7668 14.6744C11.7668 15.5553 11.5427 16.3281 11.0945 16.9926C10.6618 17.6572 10.0513 18.1826 9.2631 18.569C8.49036 18.9554 7.59398 19.1872 6.57396 19.2645L6.96806 18.8472V21.1191C6.96806 21.3664 6.88306 21.575 6.71305 21.745C6.5585 21.915 6.34986 22 6.08713 22Z" fill="white"/>
</svg>
