<svg width="198" height="34" viewBox="0 0 198 34" fill="none" xmlns="http://www.w3.org/2000/svg">
<g clip-path="url(#clip0_625_505)">
<mask id="mask0_625_505" style="mask-type:luminance" maskUnits="userSpaceOnUse" x="0" y="0" width="198" height="34">
<path d="M197.94 0H0V33.9299H197.94V0Z" fill="white"/>
</mask>
<g mask="url(#mask0_625_505)">
<path d="M27.7395 13.8375H27.8395C28.2892 13.936 28.7642 14.0346 29.2139 14.1332C29.4639 14.1579 29.7638 14.2072 30.0386 14.2811C30.3386 14.3551 30.6134 14.4044 30.8633 14.4783C32.9625 14.9713 34.6119 15.8095 35.8364 16.9926C37.0609 18.2005 37.6607 19.7288 37.7107 21.6022C37.6857 24.5109 36.5361 26.9266 34.312 28.8246C32.0879 30.7227 29.139 32.0539 25.4654 32.7934C23.691 33.1384 21.9667 33.3356 20.2923 33.3849C18.518 33.4095 16.2689 33.4342 13.5198 33.4342C10.7709 33.4342 8.19689 33.4342 5.77281 33.4342H1.74934C1.19954 33.4342 0.749716 33.3603 0.424839 33.1877C0.149943 33.0645 0.0249906 32.8426 0.0249906 32.5221C0.0249906 32.2264 0.0749716 31.832 0.174934 31.3883C0.199925 31.0925 0.299887 30.6488 0.424839 30.0819C0.824688 26.902 1.02461 23.1798 1.0496 18.866C1.0746 14.5522 0.949641 10.4111 0.724726 6.44241C0.624763 5.18526 0.424839 3.92811 0.124953 2.67096L0.0749716 2.37516C0.0249906 2.03005 0 1.7096 0 1.4631C0.0249906 1.2166 0.124953 0.994749 0.324877 0.822201C0.574782 0.698951 1.0746 0.625 1.79932 0.625H23.841C25.7153 0.625 27.4646 0.797551 29.114 1.118C30.2635 1.38915 31.1882 1.68495 31.8879 2.03005C32.5876 2.37516 33.1624 2.91746 33.6372 3.63231C34.2371 4.66761 34.337 5.82616 33.9621 7.08332C33.5872 8.34047 32.9125 9.40042 31.9129 10.2385C31.1632 10.9533 30.0386 11.6436 28.5142 12.3337L27.9144 12.6296C27.6395 12.7528 27.3896 12.9007 27.1398 13.024C26.8648 13.1472 26.7399 13.2705 26.6899 13.3691V13.4183C26.6649 13.591 27.0147 13.7388 27.7395 13.8375ZM19.0178 29.3176C19.5675 28.5042 20.0674 27.4936 20.4922 26.2857C20.9171 25.0779 21.1919 23.9932 21.3169 23.0565C21.5669 21.4296 21.5669 19.9014 21.2419 18.4716C20.9171 17.042 20.1423 16.1052 18.8678 15.6862C18.1431 15.4397 17.5933 15.4397 17.2185 15.6862C16.8437 15.9573 16.6437 16.475 16.5937 17.2391C16.5937 22.5142 16.7437 26.6061 17.0435 29.5149C17.1185 30.0079 17.2434 30.3036 17.4434 30.3776C17.9433 30.4762 18.4681 30.1311 19.0178 29.3176ZM18.6179 12.0626C19.2427 11.5942 19.7675 11.052 20.1923 10.4357C20.8171 9.52367 21.217 8.48837 21.4169 7.30517C21.6168 6.12196 21.4169 5.16061 20.8171 4.42111C20.4173 3.97741 19.8925 3.65696 19.1927 3.53371C18.493 3.38581 17.9182 3.50906 17.4684 3.90346C17.1185 4.22391 16.8936 4.81551 16.8186 5.70291C16.7437 6.51636 16.6937 7.65027 16.6187 9.15392V9.54832C16.5937 10.1892 16.5937 10.7315 16.6437 11.1506C16.6937 11.5696 16.8437 11.9393 17.0685 12.2105C17.4934 12.5556 17.9932 12.531 18.6179 12.0626Z" fill="white"/>
<path d="M38.9599 30.7228C39.3847 27.6416 39.6346 24.2152 39.6846 20.4437C39.7346 16.6476 39.6596 12.5557 39.4597 8.16801C39.3847 7.05876 39.3347 6.2453 39.2598 5.703C39.2598 5.5058 39.2348 5.3086 39.2098 5.0621C39.1848 4.84025 39.1348 4.6184 39.1098 4.3719C38.9849 3.5338 38.9099 2.8929 38.9099 2.42455C38.9099 1.98084 39.0599 1.61109 39.3598 1.31529C39.7846 0.970195 40.4343 0.748345 41.334 0.674395C42.2087 0.600444 43.3582 0.600444 44.7327 0.625094C45.0576 0.625094 45.3824 0.625094 45.7073 0.649745C46.0322 0.674395 46.3321 0.649744 46.582 0.625094H66.5494C67.674 0.649744 68.5237 0.797645 69.1485 1.01949C69.7733 1.24134 70.123 1.75899 70.173 2.57245C70.1981 3.1887 70.1481 4.15005 70.0231 5.43185L69.9231 6.5904L69.7733 7.84756C69.5983 9.05541 69.4483 9.96742 69.2984 10.5837C69.1485 11.1999 68.9235 11.6191 68.5737 11.8162C68.2738 11.8902 67.9989 11.8162 67.724 11.5943C67.4491 11.3726 67.0992 11.0767 66.6744 10.6577L66.3245 10.2633L65.5748 9.47446L64.4502 8.36521C62.8508 6.83691 61.1265 5.62905 59.3022 4.74165C57.4779 3.85425 56.3283 4.3226 55.8285 6.12205C55.6036 7.28061 55.4786 8.46381 55.4536 9.64701C55.4287 10.8302 55.6285 11.8162 56.0284 12.6297C56.3533 13.2706 56.8281 13.6403 57.4529 13.7143C58.0776 13.7882 58.7524 13.6896 59.4771 13.3938L60.1769 13.1473C60.8266 12.9008 61.3014 12.7529 61.5513 12.7529C62.1761 12.7283 62.5509 13.172 62.6759 14.1087C62.9008 15.7848 62.9008 17.3871 62.626 18.9155C62.426 20.1726 61.7013 20.5177 60.4517 19.9261C60.2768 19.8521 60.1269 19.8028 59.952 19.7288C59.2522 19.5071 58.7524 19.3345 58.4025 19.2358C58.0526 19.1373 57.6778 19.1373 57.3029 19.2358C56.3283 19.5317 55.7535 20.2958 55.5785 21.553C55.4036 22.8101 55.4036 24.3138 55.5785 26.0886L55.6285 26.7788C55.8285 28.9234 56.6282 29.8847 58.0027 29.6875C59.4021 29.4903 61.0516 28.7755 63.0008 27.543C64.2503 26.7049 65.2749 25.8667 66.0996 25.078C66.4494 24.7575 66.7993 24.4371 67.1242 24.1166C67.9489 23.2538 68.6237 22.6376 69.1985 22.2678C69.7482 21.9227 70.1231 22.046 70.273 22.7116C70.4979 23.5743 70.5729 24.8315 70.5229 26.4584V28.7755C70.5229 29.8354 70.473 30.6735 70.373 31.2897C70.273 31.906 70.0231 32.399 69.5982 32.7441C69.2484 33.0399 68.5486 33.2371 67.5241 33.3357C66.1746 33.3604 64.8501 33.385 63.5256 33.385C62.201 33.385 60.8516 33.385 59.5271 33.385H43.3582C42.2087 33.385 41.359 33.3604 40.8092 33.2864C40.4094 33.2617 40.0345 33.1631 39.7096 33.0152C39.3598 32.8674 39.1348 32.6949 39.0349 32.4484C38.8599 32.1525 38.8099 31.5609 38.9599 30.7228Z" fill="white"/>
<path d="M100.51 31.8321C96.8614 33.2865 92.3881 33.9766 87.0652 33.9274C84.6161 33.9274 81.7921 33.8534 78.5933 33.6808L77.7936 33.6316C76.994 33.6069 76.3692 33.533 75.8694 33.459C75.3696 33.3851 74.9198 33.2125 74.4949 32.9907C73.8702 32.5962 73.4952 32.0046 73.3454 31.2158C73.1954 30.4271 73.1204 29.3425 73.1204 27.9867V27.0253C73.1204 25.1273 73.1454 23.7468 73.1704 22.9088V22.6623C73.1954 22.2186 73.2704 21.8488 73.3703 21.5531C73.4703 21.2572 73.6203 21.1586 73.8702 21.2079C73.9451 21.2326 74.0951 21.3312 74.32 21.4544C74.395 21.5283 74.8448 21.9228 75.6944 22.6623L76.4692 23.4511C76.8191 23.7962 77.3939 24.3138 78.1935 24.9547C81.5423 27.6662 84.6161 29.3917 87.39 30.1559C88.4396 30.3777 89.3893 30.4517 90.2389 30.3531C90.9637 30.2545 91.5634 30.0326 92.0633 29.6876C92.563 29.3425 92.838 28.9234 92.863 28.4304C92.9129 27.9374 92.663 27.4197 92.0882 26.9021C91.5385 26.3598 90.6888 25.8175 89.5392 25.2998C88.7396 24.9055 87.64 24.4371 86.1905 23.8948C85.3908 23.5743 84.6161 23.2538 83.8164 22.9334C81.0675 21.7748 78.8183 20.6163 77.0689 19.5071C75.3196 18.3978 74.0451 16.9434 73.2204 15.1687C72.5707 13.6897 72.3207 12.0874 72.4956 10.4112C72.6706 8.73501 73.2454 7.18206 74.1951 5.75235C75.9694 3.23805 78.8932 1.53719 82.9917 0.649792C84.966 0.255392 86.9152 0.0581909 88.8395 0.00889079C90.7637 -0.0157593 93.4628 0.00889078 96.9114 0.107491C98.2859 0.181441 99.2852 0.230741 99.9099 0.304692C100.61 0.378642 101.185 0.477242 101.659 0.649792C102.134 0.822343 102.534 1.09349 102.859 1.46324C103.184 1.90694 103.409 2.4739 103.509 3.1148C103.609 3.7557 103.684 4.6431 103.709 5.7277V6.39325C103.709 7.69971 103.684 8.63641 103.659 9.20336C103.559 10.3619 103.359 10.9782 103.059 11.0521C102.859 11.1261 102.634 11.0768 102.384 10.9289C102.134 10.7809 101.81 10.5591 101.435 10.214L101.185 10.0168C99.411 8.53781 97.6861 7.25601 95.9868 6.1714C94.2874 5.11145 92.5881 4.32265 90.8388 3.805C89.889 3.5092 88.9394 3.4106 87.9898 3.5092C87.2401 3.6078 86.6153 3.87895 86.1155 4.298C85.6157 4.7417 85.5408 5.284 85.8656 5.9742C86.1655 6.59045 86.8152 7.18206 87.8398 7.77366C88.7645 8.29131 90.3389 9.00616 92.563 9.91823C94.1625 10.5591 95.462 11.1261 96.4616 11.6191C99.51 12.9994 101.885 14.6264 103.584 16.4751C105.284 18.3239 106.108 20.5424 106.033 23.1799C106.033 27.4937 104.133 30.3777 100.51 31.8321Z" fill="white"/>
<path d="M138.497 0.575431H139.296C140.021 0.575431 140.596 0.624731 141.071 0.698682C141.521 0.772632 141.946 0.969832 142.295 1.26563C142.521 1.53678 142.67 1.80793 142.721 2.10373C142.77 2.39954 142.821 2.86789 142.845 3.48414V8.9811C142.87 10.115 142.845 11.0024 142.746 11.6187C142.646 12.2349 142.37 12.3828 141.921 11.9884C141.57 11.6433 141.221 11.2489 140.921 10.8545C140.621 10.4601 140.296 10.041 139.972 9.622C139.472 9.00575 138.996 8.3895 138.497 7.77325C137.622 6.8119 136.847 6.02309 136.198 5.45614C135.548 4.88919 134.873 4.51944 134.148 4.37154C133.699 4.34689 133.374 4.47014 133.199 4.74129C133.024 5.01244 132.874 5.45614 132.774 6.02309C132.474 9.91782 132.35 14.0097 132.35 18.3234C132.374 22.6372 132.574 26.5319 132.974 30.0076L133.124 30.7964C133.249 31.5112 133.299 32.0782 133.248 32.4972C133.199 32.9163 132.899 33.1875 132.35 33.2861C130.874 33.4586 128.951 33.5079 126.602 33.434C125.977 33.434 125.352 33.434 124.752 33.4093C124.152 33.3847 123.552 33.4093 122.952 33.434H120.678C120.078 33.434 119.504 33.434 118.904 33.434C118.304 33.434 117.755 33.4093 117.23 33.3353C116.606 33.2367 116.255 32.9902 116.206 32.5466C116.13 32.1275 116.181 31.5359 116.355 30.7964C116.38 30.6238 116.43 30.4759 116.455 30.3034C116.48 30.1308 116.506 29.9829 116.506 29.8104C116.855 26.5812 117.055 22.8591 117.08 18.6439C117.105 14.4288 116.98 10.4354 116.755 6.6147C116.58 4.74129 115.955 4.02644 114.83 4.47014C113.856 4.96314 112.932 5.65334 112.107 6.54074C111.282 7.42815 110.282 8.61135 109.133 10.0657L108.833 10.4601C108.408 11.0517 108.033 11.52 107.708 11.8652C107.384 12.2103 107.108 12.3089 106.908 12.1117C106.609 11.594 106.51 10.5834 106.559 9.05505V3.33624C106.559 2.47349 106.709 1.83258 107.008 1.43818C107.308 1.04378 107.684 0.821932 108.133 0.723332C108.584 0.649381 109.308 0.575431 110.258 0.550781H138.497V0.575431Z" fill="white"/>
<path d="M145.321 31.8813L145.421 31.4375C145.596 30.846 145.721 29.9585 145.87 28.726C146.195 24.5849 146.345 20.1971 146.345 15.5876C146.32 10.978 146.095 7.03401 145.67 3.78021C145.645 3.53371 145.545 3.13931 145.421 2.62166C145.396 2.44911 145.345 2.30121 145.321 2.12865C145.196 1.78355 145.121 1.4631 145.145 1.24125C145.17 0.994749 145.296 0.822201 145.521 0.723601C146.395 0.649651 147.619 0.625 149.169 0.625C150.718 0.625 152.243 0.625 153.742 0.625C154.792 0.625 155.817 0.625 156.816 0.649651C157.815 0.674301 158.766 0.64965 159.69 0.625C160.04 0.64965 160.389 0.674301 160.715 0.649651C161.04 0.625 161.364 0.625 161.64 0.625C162.464 0.625 162.963 0.674301 163.189 0.772901C163.414 0.871501 163.488 1.0687 163.439 1.38915C163.389 1.68495 163.214 2.47376 162.914 3.73091C162.489 6.93541 162.264 11.0273 162.239 16.0312C162.214 21.0352 162.389 25.3736 162.714 29.0711C162.814 29.9093 162.963 30.698 163.163 31.4375C163.239 31.6348 163.289 31.832 163.314 32.0291C163.389 32.251 163.414 32.4729 163.439 32.67C163.463 32.8673 163.414 33.0398 163.314 33.2124C163.189 33.3849 162.863 33.4589 162.339 33.4589H146.719C146.27 33.4835 145.895 33.4835 145.621 33.4095C145.345 33.3356 145.196 33.1878 145.145 32.9659C145.145 32.7686 145.196 32.3989 145.321 31.8813Z" fill="white"/>
<path d="M166.335 30.7228C166.76 27.6416 167.01 24.2152 167.06 20.4437C167.11 16.6476 167.035 12.5557 166.835 8.16801C166.76 7.05876 166.71 6.2453 166.635 5.703C166.635 5.5058 166.61 5.3086 166.585 5.0621C166.56 4.84025 166.51 4.6184 166.485 4.3719C166.36 3.5338 166.286 2.8929 166.286 2.42455C166.286 1.98084 166.435 1.61109 166.735 1.31529C167.16 0.970195 167.809 0.748345 168.709 0.674395C169.584 0.600444 170.734 0.600444 172.108 0.625094C172.432 0.625094 172.758 0.625094 173.083 0.649745C173.408 0.674395 173.708 0.649744 173.957 0.625094H193.95C195.075 0.649744 195.924 0.797645 196.549 1.01949C197.174 1.24134 197.523 1.75899 197.573 2.57245C197.598 3.1887 197.549 4.15005 197.423 5.43185L197.323 6.5904L197.174 7.84756C196.998 9.05541 196.849 9.96742 196.698 10.5837C196.549 11.1999 196.324 11.6191 195.974 11.8162C195.674 11.8902 195.399 11.8162 195.124 11.5943C194.849 11.3726 194.5 11.0767 194.075 10.6577L193.724 10.2633L192.975 9.47446L191.85 8.36521C190.251 6.83691 188.527 5.62905 186.702 4.74165C184.878 3.85425 183.728 4.3226 183.228 6.12205C183.004 7.28061 182.879 8.46381 182.854 9.64701C182.829 10.8302 183.028 11.8162 183.428 12.6297C183.754 13.2706 184.228 13.6403 184.853 13.7143C185.478 13.7882 186.153 13.6896 186.878 13.3938L187.577 13.1473C188.227 12.9008 188.702 12.7529 188.952 12.7529C189.576 12.7283 189.951 13.172 190.076 14.1087C190.301 15.7848 190.301 17.3871 190.026 18.9155C189.827 20.1726 189.102 20.5177 187.852 19.9261C187.677 19.8521 187.527 19.8028 187.352 19.7288C186.653 19.5071 186.153 19.3345 185.802 19.2358C185.453 19.1373 185.078 19.1373 184.703 19.2358C183.728 19.5317 183.154 20.2958 182.979 21.553C182.804 22.8101 182.804 24.3138 182.979 26.0886L183.028 26.7788C183.228 28.9234 184.028 29.8847 185.403 29.6875C186.802 29.4903 188.452 28.7755 190.401 27.543C191.65 26.7049 192.675 25.8667 193.5 25.078C193.85 24.7575 194.2 24.4371 194.524 24.1166C195.349 23.2538 196.024 22.6376 196.598 22.2678C197.149 21.9227 197.523 22.046 197.673 22.7116C197.898 23.5743 197.973 24.8315 197.923 26.4584V28.7755C197.923 29.8354 197.873 30.6735 197.773 31.2897C197.673 31.906 197.423 32.399 196.998 32.7441C196.649 33.0399 195.949 33.2371 194.924 33.3357C193.575 33.3604 192.25 33.385 190.926 33.385C189.601 33.385 188.252 33.385 186.927 33.385H170.758C169.609 33.385 168.76 33.3604 168.209 33.2864C167.809 33.2617 167.435 33.1631 167.11 33.0152C166.76 32.8674 166.535 32.6949 166.435 32.4484C166.26 32.1525 166.21 31.5609 166.335 30.7228Z" fill="white"/>
</g>
</g>
<defs>
<clipPath id="clip0_625_505">
<rect width="198" height="34" fill="white"/>
</clipPath>
</defs>
</svg>
