<svg width="427" height="420" viewBox="0 0 427 420" fill="none" xmlns="http://www.w3.org/2000/svg">
<path d="M342.149 210.169C342.149 222.908 318.635 231.715 314.939 243.196C311.086 255.07 324.769 275.987 317.534 285.895C310.299 295.882 286.078 289.276 276.091 296.589C266.182 303.824 265.003 328.83 253.128 332.683C241.646 336.379 225.997 316.956 213.336 316.956C200.596 316.956 185.025 336.458 173.544 332.683C161.669 328.83 160.49 303.745 150.659 296.589C140.672 289.355 116.451 295.882 109.216 285.895C101.981 275.987 115.665 255.07 111.811 243.196C108.115 231.715 84.6016 222.908 84.6016 210.169C84.6016 197.43 108.115 188.623 111.811 177.142C115.665 165.268 101.981 144.351 109.216 134.443C116.451 124.456 140.672 131.062 150.659 123.749C160.568 116.514 161.748 91.5079 173.622 87.6548C185.104 83.9589 200.753 103.382 213.414 103.382C226.154 103.382 241.725 83.8803 253.206 87.6548C265.081 91.5079 266.261 116.593 276.169 123.749C286.157 130.983 310.378 124.456 317.613 134.443C324.848 144.351 311.164 165.268 315.018 177.142C318.714 188.623 342.149 197.43 342.149 210.169Z" fill="#E2E868"/>
<path d="M237.559 201.364H237.828C239.042 201.633 240.323 201.902 241.536 202.171C242.21 202.238 243.019 202.372 243.76 202.574C244.569 202.776 245.311 202.91 245.985 203.112C251.647 204.457 256.096 206.743 259.399 209.971C262.702 213.267 264.32 217.436 264.455 222.547C264.388 230.482 261.287 237.073 255.287 242.251C249.288 247.429 241.334 251.06 231.425 253.078C226.638 254.019 221.987 254.557 217.471 254.692C212.685 254.759 206.618 254.826 199.203 254.826C191.788 254.826 184.845 254.826 178.306 254.826H167.453C165.97 254.826 164.757 254.624 163.88 254.154C163.139 253.817 162.802 253.212 162.802 252.338C162.802 251.531 162.937 250.455 163.206 249.245C163.274 248.438 163.543 247.227 163.88 245.68C164.959 237.005 165.498 226.851 165.566 215.082C165.633 203.314 165.296 192.016 164.689 181.189C164.42 177.759 163.88 174.33 163.071 170.9L162.937 170.093C162.802 169.152 162.734 168.277 162.734 167.605C162.802 166.932 163.071 166.327 163.611 165.856C164.285 165.52 165.633 165.318 167.588 165.318H227.043C232.099 165.318 236.817 165.789 241.266 166.663C244.367 167.403 246.861 168.21 248.749 169.152C250.636 170.093 252.187 171.572 253.467 173.523C255.085 176.347 255.355 179.508 254.344 182.937C253.333 186.367 251.513 189.259 248.816 191.545C246.794 193.495 243.76 195.378 239.648 197.261L238.031 198.068C237.289 198.405 236.615 198.808 235.941 199.144C235.199 199.481 234.862 199.817 234.728 200.086V200.22C234.66 200.691 235.604 201.095 237.559 201.364ZM214.033 243.596C215.516 241.376 216.864 238.619 218.01 235.324C219.156 232.029 219.898 229.07 220.235 226.515C220.909 222.076 220.909 217.907 220.032 214.006C219.156 210.106 217.066 207.55 213.628 206.407C211.674 205.735 210.191 205.735 209.179 206.407C208.168 207.147 207.629 208.559 207.494 210.644C207.494 225.035 207.899 236.198 208.708 244.134C208.91 245.479 209.247 246.286 209.786 246.487C211.134 246.756 212.55 245.815 214.033 243.596ZM212.954 196.522C214.64 195.244 216.055 193.764 217.201 192.083C218.886 189.595 219.965 186.771 220.504 183.543C221.043 180.315 220.504 177.692 218.886 175.675C217.808 174.464 216.392 173.59 214.505 173.254C212.617 172.85 211.067 173.186 209.854 174.262C208.91 175.137 208.303 176.751 208.101 179.172C207.899 181.391 207.764 184.484 207.562 188.586V189.662C207.494 191.411 207.494 192.89 207.629 194.033C207.764 195.177 208.168 196.185 208.775 196.925C209.921 197.867 211.269 197.799 212.954 196.522Z" fill="#282828"/>
<g clip-path="url(#clip0_625_557)">
<path d="M412.623 223.67L411.144 221.199L409.829 223.67C408.924 225.317 407.856 226.387 406.458 227.046L403.828 228.529L406.458 230.011C407.856 230.67 409.007 231.823 409.829 233.387L411.144 235.858L412.623 233.387C413.281 231.74 414.432 230.67 415.993 230.011L418.459 228.529L415.993 227.046C414.432 226.387 413.281 225.317 412.623 223.67Z" fill="black"/>
<path d="M16.4318 223.67L14.9523 221.199L13.6371 223.67C12.7329 225.317 11.6644 226.387 10.267 227.046L7.63672 228.529L10.267 230.011C11.6644 230.67 12.8151 231.823 13.6371 233.387L14.9523 235.858L16.4318 233.387C17.0894 231.74 18.2402 230.67 19.8019 230.011L22.2678 228.529L19.8019 227.046C18.2402 226.387 17.0894 225.317 16.4318 223.67Z" fill="black"/>
<path d="M23.8292 152.848C23.0895 152.024 22.1853 151.365 21.0345 151.036C19.966 150.707 18.9796 150.624 18.0754 150.871C17.1712 151.118 16.3493 151.448 15.6917 152.024C15.0341 152.601 14.5409 153.342 14.2943 154.083L14.0478 154.001C14.13 153.177 14.0478 152.436 13.8012 151.695C13.5546 150.954 13.2258 150.377 12.6504 149.801C12.1572 149.224 11.4174 148.895 10.5955 148.565C9.5269 148.236 8.45834 148.154 7.47197 148.483C6.48561 148.73 5.58144 149.307 4.75946 150.213C3.93749 151.118 3.27991 152.354 2.78673 154.001L0.0742188 162.73L21.7743 169.565L24.6512 160.424C25.1444 158.777 25.3088 157.295 25.1444 156.06C24.98 154.742 24.569 153.754 23.8292 152.848ZM11.664 157.624L10.5955 161.165L5.08825 159.436L6.23901 155.813C6.5678 154.742 7.06099 154.083 7.71856 153.671C8.37614 153.26 9.11592 153.177 9.93789 153.424C10.5133 153.589 11.0065 153.918 11.3352 154.33C11.664 154.742 11.8284 155.236 11.9106 155.813C11.9106 156.389 11.9106 157.048 11.664 157.624ZM20.7057 160.095L19.4728 163.965L13.6368 162.071L14.8697 158.118C15.1163 157.377 15.4451 156.801 15.8561 156.307C16.2671 155.813 16.7603 155.565 17.3356 155.401C17.911 155.236 18.4864 155.236 19.0618 155.483C19.8838 155.73 20.4591 156.224 20.7879 157.048C21.1989 157.789 21.1167 158.86 20.7057 160.095Z" fill="black"/>
<path d="M14.9372 123.889L12.9141 128.123L33.3772 137.938L35.4003 133.704L14.9372 123.889Z" fill="black"/>
<path d="M45.5279 95.1989C43.4729 93.7989 41.5002 92.9754 39.5275 92.8107C37.5547 92.5637 35.7464 92.8931 34.1024 93.7166C32.4585 94.5401 31.0611 95.7754 29.9104 97.4225C28.7596 99.0695 28.1842 100.799 28.0198 102.693C27.8555 104.505 28.2664 106.317 29.1706 108.046C30.0748 109.775 31.5543 111.34 33.6093 112.74C35.6642 114.14 37.6369 114.881 39.6097 115.128C41.5824 115.293 43.3907 115.046 45.0347 114.222C46.6786 113.399 48.076 112.164 49.2267 110.517C50.3775 108.87 50.9529 107.058 51.1173 105.246C51.2817 103.434 50.8707 101.622 49.9665 99.8931C49.0623 98.1637 47.5828 96.5989 45.5279 95.1989ZM45.8567 108.211C45.1991 109.199 44.3771 109.858 43.3907 110.27C42.4044 110.681 41.3358 110.764 40.1028 110.517C38.8699 110.27 37.6369 109.693 36.3218 108.787C35.0066 107.881 33.938 106.893 33.2805 105.905C32.6229 104.917 32.2941 103.846 32.2941 102.775C32.2941 101.705 32.6229 100.717 33.2805 99.7284C33.938 98.7401 34.76 98.0813 35.7464 97.6695C36.7328 97.2578 37.8013 97.1754 39.0343 97.4225C40.2672 97.6695 41.5002 98.246 42.8975 99.1519C44.2127 100.058 45.1991 101.046 45.8567 102.034C46.5142 103.105 46.843 104.093 46.843 105.164C46.843 106.234 46.5142 107.222 45.8567 108.211Z" fill="black"/>
<path d="M59.337 62.6694L65.9128 69.093L58.926 76.1753L52.4324 69.7518L49.1445 73.0459L65.3374 89.0224L68.5431 85.7283L61.7207 78.893L68.6253 71.8106L75.5299 78.6459L78.8177 75.2694L62.6249 59.293L59.337 62.6694Z" fill="black"/>
<path d="M83.9141 41.9998L90.572 65.141L94.7641 62.1763L93.1202 56.9057L99.6959 52.294L104.135 55.5881L108.327 52.6234L88.7637 38.541L83.9141 41.9998ZM95.0107 48.6704L96.7368 49.9881L92.0516 53.2822L91.394 51.2234C90.9008 49.8234 90.4076 48.341 89.7501 46.694C89.3391 45.6234 88.9281 44.4704 88.4349 43.3175C89.4213 44.141 90.3255 44.8822 91.1474 45.6234C92.5448 46.694 93.7777 47.7645 95.0107 48.6704Z" fill="black"/>
<path d="M130.277 41.5069C131.592 40.9304 132.66 40.1892 133.482 39.2833C134.304 38.3774 134.962 37.4716 135.455 36.401C135.866 35.3304 136.113 34.2598 136.195 33.1892C136.277 32.1186 136.113 31.048 135.784 30.0598L131.51 32.0363C131.674 32.6127 131.756 33.2716 131.674 33.7657C131.592 34.3421 131.427 34.8363 131.181 35.3304C130.934 35.8245 130.605 36.2363 130.112 36.648C129.701 37.0598 129.208 37.3892 128.55 37.6363C127.482 38.1304 126.413 38.2951 125.427 38.1304C124.358 37.9657 123.372 37.4716 122.468 36.7304C121.564 35.9069 120.742 34.7539 120.084 33.2716C119.427 31.7892 119.016 30.4716 119.016 29.2363C119.016 28.001 119.262 26.9304 119.838 26.0245C120.413 25.1186 121.235 24.3774 122.303 23.8833C122.879 23.6363 123.454 23.4716 124.03 23.3892C124.605 23.3069 125.18 23.3069 125.674 23.4716C126.167 23.6363 126.742 23.801 127.153 24.1304C127.646 24.4598 128.057 24.8716 128.386 25.3657L132.66 23.3892C132.003 22.3186 131.181 21.4127 130.277 20.7539C129.372 20.0951 128.386 19.601 127.317 19.3539C126.249 19.1069 125.098 19.0245 123.947 19.1892C122.797 19.3539 121.646 19.6833 120.413 20.2598C118.605 21.0833 117.207 22.2363 116.139 23.801C115.07 25.2833 114.495 27.0127 114.413 28.9892C114.33 30.9657 114.741 33.1069 115.81 35.3304C116.878 37.5539 118.111 39.2833 119.755 40.4363C121.317 41.5892 123.043 42.3304 124.852 42.4951C126.66 42.6598 128.468 42.3304 130.277 41.5069Z" fill="black"/>
<path d="M167.347 4.77734L161.839 6.17734L158.058 13.9185C157.565 14.9068 157.236 15.8126 156.825 16.6362C156.497 17.4597 156.168 18.2832 155.921 19.1068C155.839 19.2715 155.839 19.3538 155.839 19.5185L154.606 14.495L153.044 8.48323L148.523 9.63617L154.277 31.7068L158.798 30.5538L157.154 24.295L159.209 20.3421L167.922 28.2479L173.265 26.8479L161.593 16.5538L167.347 4.77734Z" fill="black"/>
<path d="M191.161 1.28631L186.504 1.80078L188.99 24.3938L193.647 23.8793L191.161 1.28631Z" fill="black"/>
<path d="M225.131 23.3059L230.309 23.4706L231.131 0.741176L226.364 0.576471L225.953 11.5294C225.953 12.1059 225.953 12.8471 225.953 13.7529C225.953 14.6588 225.953 15.5647 226.035 16.4706C226.035 16.8824 226.035 17.2941 226.035 17.6235C225.871 17.1294 225.706 16.7176 225.542 16.3059C225.213 15.4824 224.802 14.6588 224.473 14C224.144 13.2588 223.816 12.6 223.405 12.0235L216.664 0.247059L211.486 0L210.664 22.7294L215.431 22.8941L215.842 12.4353C215.842 11.9412 215.842 11.2824 215.842 10.4588C215.842 9.63529 215.842 8.72941 215.76 7.74118C215.76 7.16471 215.76 6.58823 215.678 5.92941C216.007 6.58823 216.253 7.24706 216.5 7.82353C216.911 8.72941 217.322 9.55294 217.651 10.2941C218.062 11.0353 218.473 11.8588 218.884 12.6L225.131 23.3059Z" fill="black"/>
<path d="M267.709 8.81247C267.051 7.98894 266.147 7.24776 265.161 6.58894C264.174 6.01247 263.023 5.51835 261.79 5.27129C259.818 4.85952 258.009 4.85952 256.201 5.436C254.475 6.01247 252.913 7.0007 251.598 8.48305C250.283 9.96541 249.379 11.9419 248.886 14.3301C248.392 16.636 248.392 18.7772 248.886 20.6713C249.379 22.5654 250.283 24.1301 251.68 25.4478C253.078 26.6831 254.722 27.5889 256.859 28.0831C258.749 28.4948 260.475 28.4948 262.037 28.0831C263.681 27.6713 264.996 26.8478 266.147 25.6125C267.298 24.3772 268.037 22.8125 268.531 20.836L269.188 18.036L259.818 16.0595L259.078 19.5183L263.928 20.5889C263.681 21.4948 263.352 22.236 262.777 22.8125C262.201 23.4713 261.462 23.8831 260.64 24.0478C259.818 24.2948 258.831 24.2125 257.763 24.0478C256.612 23.8007 255.626 23.2242 254.886 22.4831C254.146 21.7419 253.653 20.7536 253.406 19.5183C253.16 18.2831 253.242 16.9654 253.571 15.3183C253.9 13.7536 254.475 12.436 255.215 11.4478C255.954 10.4595 256.776 9.8007 257.845 9.38894C258.831 8.97717 259.9 8.97717 261.051 9.22423C261.626 9.38894 262.201 9.55364 262.695 9.8007C263.188 10.0478 263.599 10.3772 263.928 10.7889C264.256 11.2007 264.503 11.6125 264.75 12.1066C264.914 12.6007 265.078 13.0948 265.078 13.6713L269.681 14.7419C269.764 13.5889 269.681 12.5183 269.353 11.5301C268.859 10.5419 268.366 9.636 267.709 8.81247Z" fill="black"/>
<path d="M319.741 27.6713L311.85 23.3066L300.918 43.2361L309.302 47.8478C310.782 48.6713 312.179 49.1655 313.494 49.1655C314.727 49.2478 315.878 49.0008 316.864 48.4243C317.851 47.8478 318.59 47.1066 319.166 46.0361C319.741 45.0478 319.988 44.0596 319.906 43.1537C319.823 42.2478 319.659 41.3419 319.166 40.6008C318.755 39.8596 318.097 39.2008 317.357 38.789L317.44 38.6243C318.179 38.8713 319.001 38.8713 319.741 38.8713C320.481 38.789 321.138 38.5419 321.796 38.1302C322.454 37.7184 322.947 37.1419 323.358 36.3184C323.933 35.3302 324.18 34.2596 324.098 33.2713C324.015 32.2008 323.604 31.2125 322.865 30.2243C322.289 29.3184 321.221 28.4125 319.741 27.6713ZM315.22 43.4008C314.809 44.1419 314.234 44.6361 313.412 44.8008C312.59 44.9655 311.604 44.7184 310.371 44.0596L306.836 42.0831L309.795 36.6478L313.412 38.6243C314.07 39.0361 314.645 39.4478 314.974 39.9419C315.302 40.4361 315.549 41.0125 315.549 41.589C315.631 42.3302 315.549 42.9066 315.22 43.4008ZM319.001 34.7537C318.673 35.3302 318.344 35.6596 317.851 35.9066C317.357 36.1537 316.864 36.2361 316.289 36.2361C315.713 36.1537 315.138 35.989 314.563 35.6596L311.357 33.9302L314.152 28.9066L317.44 30.7184C318.426 31.2125 319.001 31.8713 319.248 32.6125C319.495 33.2713 319.412 34.0125 319.001 34.7537Z" fill="black"/>
<path d="M329.52 60.6128L341.52 70.0834L343.904 67.0363L335.602 60.4481L339.137 56.001L346.781 62.0128L349.165 59.0481L341.438 52.954L344.89 48.6716L353.192 55.1775L355.576 52.1304L343.575 42.7422L329.52 60.6128Z" fill="black"/>
<path d="M378.759 75.7643C378.348 74.4467 377.526 73.2114 376.458 71.9761C375.307 70.7408 374.156 69.8349 372.841 69.3408C371.526 68.7643 370.293 68.5996 369.06 68.682C367.827 68.8467 366.676 69.3408 365.69 70.3291C364.457 71.482 363.882 72.7173 363.882 74.1996C363.882 75.682 364.375 77.3291 365.279 79.0585L366.512 81.3643C366.923 82.1055 367.252 82.7643 367.416 83.4232C367.581 83.9996 367.663 84.5761 367.663 84.9879C367.581 85.482 367.416 85.8938 367.005 86.2232C366.594 86.6349 366.101 86.7996 365.526 86.882C364.95 86.9643 364.375 86.7996 363.799 86.4702C363.224 86.1408 362.649 85.7291 362.073 85.0702C361.498 84.4938 361.087 83.8349 360.84 83.1761C360.594 82.5173 360.512 81.8585 360.594 81.1996C360.676 80.5408 361.005 79.9643 361.58 79.3879L358.539 76.0114C357.388 77.1643 356.648 78.3173 356.319 79.6349C355.991 80.9526 356.155 82.2702 356.648 83.6702C357.141 85.0702 358.046 86.3879 359.279 87.7879C360.512 89.1055 361.827 90.0938 363.06 90.6702C364.375 91.2467 365.608 91.4938 366.841 91.2467C368.074 91.082 369.142 90.5055 370.211 89.5996C370.951 88.9408 371.444 88.282 371.773 87.5408C372.101 86.7996 372.184 85.9761 372.184 85.1526C372.184 84.3291 372.019 83.5055 371.69 82.5996C371.444 81.7761 371.033 80.8702 370.54 80.0467L369.553 78.1526C369.224 77.5761 368.978 76.9996 368.731 76.4232C368.485 75.8467 368.403 75.3526 368.485 74.8585C368.567 74.3643 368.731 73.9526 369.142 73.5408C369.553 73.2114 369.964 72.9643 370.457 72.9643C370.951 72.882 371.444 73.0467 372.019 73.2938C372.595 73.5408 373.088 73.9526 373.663 74.5291C374.485 75.3526 374.896 76.2585 374.978 77.082C375.06 77.9055 374.814 78.7291 374.239 79.3879L377.28 82.682C378.266 81.7761 378.842 80.7055 379.17 79.4702C379.253 78.3996 379.17 77.082 378.759 75.7643Z" fill="black"/>
<path d="M400.537 111.341L403.743 109.199L393.715 93.6348L390.427 95.6936L394.208 101.541L378.344 111.835L380.892 115.788L396.756 105.494L400.537 111.341Z" fill="black"/>
<path d="M412.654 126.471L392.066 136.02L394.035 140.279L414.623 130.731L412.654 126.471Z" fill="black"/>
<path d="M422.157 149.471L400.457 156.141L404.896 170.8L408.595 169.647L405.553 159.518L410.978 157.788L413.855 167.177L417.472 166.024L414.595 156.718L419.856 155.071L422.979 165.2L426.678 164.047L422.157 149.471Z" fill="black"/>
<path d="M136.686 386.234C136.11 385.493 135.206 384.834 134.055 384.34L127.89 381.293L120.246 396.858L126.822 400.069C127.973 400.646 129.041 400.975 130.028 400.975C131.014 400.975 131.836 400.811 132.576 400.317C133.315 399.905 133.891 399.246 134.302 398.422C134.713 397.681 134.877 396.94 134.795 396.199C134.713 395.458 134.548 394.881 134.137 394.305C133.809 393.728 133.315 393.317 132.74 392.987L132.822 392.822C133.398 392.987 133.973 392.987 134.548 392.905C135.124 392.822 135.617 392.575 136.11 392.246C136.603 391.916 136.932 391.422 137.261 390.846C137.672 390.105 137.754 389.281 137.672 388.458C137.59 387.717 137.261 386.975 136.686 386.234ZM131.178 396.528C130.85 397.105 130.439 397.516 129.863 397.681C129.288 397.846 128.466 397.681 127.562 397.187L124.767 395.869L126.822 391.669L129.699 393.069C130.274 393.316 130.685 393.646 130.932 394.058C131.261 394.469 131.425 394.881 131.425 395.293C131.425 395.622 131.343 396.116 131.178 396.528ZM133.809 389.775C133.562 390.187 133.315 390.516 132.987 390.681C132.658 390.846 132.247 391.011 131.754 390.928C131.261 390.846 130.85 390.764 130.439 390.599L127.89 389.364L129.863 385.411L132.411 386.646C133.151 386.975 133.644 387.469 133.891 388.046C134.055 388.705 134.055 389.199 133.809 389.775Z" fill="black"/>
<path d="M157.151 399.412C156.74 399.824 156.329 400.236 155.918 400.73C155.754 400.895 155.59 401.142 155.343 401.389C155.343 401.059 155.343 400.812 155.261 400.483C155.179 399.906 155.096 399.33 155.014 398.671L153.863 392.659L149.918 391.342L152.713 403.612L150.74 409.789L154.11 410.859L156.083 404.683L165.453 396.283L161.508 395.048L157.151 399.412Z" fill="black"/>
<path d="M197.019 401.883L189.785 418.765L193.731 419.095L195.292 415.142L201.457 415.636L202.526 419.753L206.471 420.083L201.704 402.295L197.019 401.883ZM196.443 412.424L197.019 410.942C197.43 409.871 197.84 408.8 198.251 407.483C198.498 406.659 198.827 405.753 199.073 404.848C199.238 405.753 199.402 406.659 199.567 407.565C199.813 408.883 200.06 410.118 200.306 411.189L200.717 412.753L196.443 412.424Z" fill="black"/>
<path d="M234.253 409.623L227.019 410.117L227.184 412.835L230.965 412.588C230.965 413.329 230.883 413.906 230.636 414.482C230.389 415.059 229.896 415.553 229.321 415.882C228.746 416.212 228.006 416.459 227.184 416.459C226.28 416.541 225.458 416.376 224.718 415.964C223.978 415.553 223.403 414.976 222.992 414.153C222.581 413.329 222.334 412.259 222.252 411.106C222.17 409.87 222.252 408.8 222.581 407.976C222.91 407.07 223.403 406.412 224.06 405.917C224.718 405.423 225.458 405.176 226.362 405.094C226.855 405.094 227.266 405.094 227.677 405.176C228.088 405.259 228.499 405.423 228.828 405.67C229.157 405.917 229.485 406.164 229.65 406.494C229.896 406.823 230.061 407.153 230.225 407.564L233.842 407.317C233.677 406.494 233.349 405.67 232.855 405.012C232.362 404.353 231.787 403.776 231.129 403.282C230.472 402.788 229.65 402.459 228.828 402.212C228.006 401.964 227.019 401.882 226.115 401.964C224.636 402.047 223.238 402.541 222.088 403.282C220.937 404.106 220.033 405.176 219.375 406.576C218.717 407.976 218.471 409.623 218.635 411.435C218.8 413.247 219.211 414.812 219.95 416.129C220.69 417.447 221.759 418.353 222.992 419.012C224.225 419.67 225.704 419.917 227.348 419.753C228.828 419.67 230.061 419.259 231.129 418.6C232.198 417.941 233.02 417.035 233.595 415.882C234.171 414.729 234.417 413.412 234.253 411.929V409.623Z" fill="black"/>
<path d="M262.284 404.352L255.215 405.917L255.791 408.552L259.49 407.728C259.654 408.387 259.654 409.046 259.408 409.623C259.243 410.281 258.832 410.775 258.339 411.187C257.846 411.599 257.188 411.928 256.366 412.093C255.462 412.258 254.64 412.258 253.818 411.928C253.078 411.599 252.421 411.105 251.845 410.364C251.27 409.623 250.859 408.634 250.612 407.399C250.366 406.164 250.284 405.175 250.448 404.187C250.612 403.199 251.023 402.54 251.599 401.964C252.174 401.387 252.914 400.976 253.736 400.811C254.229 400.728 254.64 400.646 255.051 400.728C255.462 400.728 255.873 400.811 256.202 400.975C256.531 401.14 256.859 401.387 257.188 401.634C257.517 401.881 257.764 402.211 257.928 402.623L261.462 401.799C261.134 400.975 260.723 400.234 260.147 399.658C259.572 399.081 258.914 398.587 258.175 398.175C257.435 397.846 256.613 397.599 255.709 397.517C254.804 397.434 253.9 397.517 252.914 397.681C251.434 398.011 250.201 398.67 249.133 399.658C248.064 400.646 247.407 401.799 246.996 403.281C246.585 404.764 246.585 406.411 246.996 408.223C247.407 410.034 248.064 411.434 249.051 412.587C250.037 413.74 251.188 414.564 252.503 414.975C253.818 415.387 255.298 415.47 256.942 415.058C258.339 414.728 259.572 414.152 260.558 413.328C261.545 412.505 262.202 411.517 262.613 410.281C263.024 409.046 263.024 407.728 262.695 406.246L262.284 404.352Z" fill="black"/>
<path d="M275.622 391.514L272.293 392.703L278.119 409.07L281.448 407.881L275.622 391.514Z" fill="black"/>
<path d="M297.05 398.094L295.16 394.141L301.818 390.847L300.585 388.212L293.845 391.506L292.036 387.717L299.27 384.176L297.955 381.541L287.516 386.647L295.16 402.294L305.599 397.106L304.284 394.47L297.05 398.094Z" fill="black"/>
</g>
<defs>
<clipPath id="clip0_625_557">
<rect width="426.604" height="420" fill="white" transform="translate(0.0742188)"/>
</clipPath>
</defs>
</svg>
