<svg width="219" height="12" viewBox="0 0 219 12" fill="none" xmlns="http://www.w3.org/2000/svg">
<path d="M0.0710227 10V1.27273H5.84943V2.79403H1.91619V4.87358H5.46591V6.39489H1.91619V10H0.0710227ZM7.09055 10V1.27273H10.5337C11.1928 1.27273 11.7553 1.39062 12.2212 1.62642C12.69 1.85937 13.0465 2.19034 13.2908 2.61932C13.538 3.04545 13.6616 3.54687 13.6616 4.12358C13.6616 4.70312 13.5366 5.2017 13.2866 5.61932C13.0366 6.03409 12.6744 6.35227 12.1999 6.57386C11.7283 6.79545 11.1573 6.90625 10.4869 6.90625H8.18146V5.4233H10.1886C10.5408 5.4233 10.8335 5.375 11.0664 5.27841C11.2994 5.18182 11.4727 5.03693 11.5863 4.84375C11.7028 4.65057 11.761 4.41051 11.761 4.12358C11.761 3.83381 11.7028 3.58949 11.5863 3.39062C11.4727 3.19176 11.2979 3.04119 11.0621 2.93892C10.8292 2.83381 10.5352 2.78125 10.18 2.78125H8.93572V10H7.09055ZM11.8036 6.02841L13.9727 10H11.9357L9.81357 6.02841H11.8036ZM14.9656 10V1.27273H20.8462V2.79403H16.8107V4.87358H20.5437V6.39489H16.8107V8.47869H20.8633V10H14.9656ZM22.3132 10V1.27273H28.1939V2.79403H24.1584V4.87358H27.8913V6.39489H24.1584V8.47869H28.2109V10H22.3132ZM38.2251 4.09375C38.1655 3.88636 38.0817 3.70312 37.9737 3.54403C37.8658 3.3821 37.7337 3.24574 37.5774 3.13494C37.424 3.02131 37.2479 2.93466 37.049 2.875C36.853 2.81534 36.6357 2.78551 36.397 2.78551C35.951 2.78551 35.5589 2.89631 35.2209 3.1179C34.8857 3.33949 34.6243 3.66193 34.4368 4.08523C34.2493 4.50568 34.1555 5.01989 34.1555 5.62784C34.1555 6.2358 34.2479 6.75284 34.4325 7.17898C34.6172 7.60511 34.8786 7.9304 35.2166 8.15483C35.5547 8.37642 35.9538 8.48722 36.4141 8.48722C36.8317 8.48722 37.1882 8.41335 37.4837 8.26562C37.782 8.11506 38.0092 7.90341 38.1655 7.63068C38.3246 7.35795 38.4041 7.03551 38.4041 6.66335L38.7791 6.71875H36.5291V5.32955H40.1811V6.42898C40.1811 7.19602 40.0192 7.85511 39.6953 8.40625C39.3714 8.95455 38.9254 9.37784 38.3572 9.67614C37.7891 9.97159 37.1385 10.1193 36.4055 10.1193C35.5874 10.1193 34.8686 9.93892 34.2493 9.57812C33.63 9.21449 33.147 8.69886 32.8004 8.03125C32.4567 7.3608 32.2848 6.56534 32.2848 5.64489C32.2848 4.9375 32.3871 4.30682 32.5916 3.75284C32.799 3.19602 33.0888 2.72443 33.4609 2.33807C33.8331 1.9517 34.2663 1.65767 34.7607 1.45597C35.255 1.25426 35.7905 1.15341 36.3672 1.15341C36.8615 1.15341 37.3217 1.22585 37.7479 1.37074C38.174 1.51278 38.5518 1.71449 38.8814 1.97585C39.2138 2.23722 39.4851 2.5483 39.6953 2.90909C39.9055 3.26705 40.0405 3.66193 40.1001 4.09375H38.2251ZM43.4123 1.27273V10H41.5671V1.27273H43.4123ZM44.9304 10V1.27273H50.7088V2.79403H46.7756V4.87358H50.3253V6.39489H46.7756V10H44.9304ZM51.6175 2.79403V1.27273H58.7852V2.79403H56.1133V10H54.2894V2.79403H51.6175ZM70.7628 5.63636C70.7628 6.58807 70.5824 7.39773 70.2216 8.06534C69.8636 8.73295 69.375 9.2429 68.7557 9.59517C68.1392 9.9446 67.446 10.1193 66.6761 10.1193C65.9006 10.1193 65.2045 9.94318 64.5881 9.59091C63.9716 9.23864 63.4844 8.72869 63.1264 8.06108C62.7685 7.39347 62.5895 6.58523 62.5895 5.63636C62.5895 4.68466 62.7685 3.875 63.1264 3.20739C63.4844 2.53977 63.9716 2.03125 64.5881 1.68182C65.2045 1.32955 65.9006 1.15341 66.6761 1.15341C67.446 1.15341 68.1392 1.32955 68.7557 1.68182C69.375 2.03125 69.8636 2.53977 70.2216 3.20739C70.5824 3.875 70.7628 4.68466 70.7628 5.63636ZM68.892 5.63636C68.892 5.01989 68.7997 4.5 68.6151 4.0767C68.4332 3.65341 68.1761 3.33239 67.8438 3.11364C67.5114 2.89489 67.1222 2.78551 66.6761 2.78551C66.2301 2.78551 65.8409 2.89489 65.5085 3.11364C65.1761 3.33239 64.9176 3.65341 64.733 4.0767C64.5511 4.5 64.4602 5.01989 64.4602 5.63636C64.4602 6.25284 64.5511 6.77273 64.733 7.19602C64.9176 7.61932 65.1761 7.94034 65.5085 8.15909C65.8409 8.37784 66.2301 8.48722 66.6761 8.48722C67.1222 8.48722 67.5114 8.37784 67.8438 8.15909C68.1761 7.94034 68.4332 7.61932 68.6151 7.19602C68.7997 6.77273 68.892 6.25284 68.892 5.63636ZM79.4293 1.27273V10H77.8356L74.0387 4.5071H73.9748V10H72.1296V1.27273H73.7489L77.516 6.76136H77.5927V1.27273H79.4293ZM85.2354 10H83.2582L86.271 1.27273H88.6488L91.6573 10H89.68L87.494 3.26705H87.4258L85.2354 10ZM85.1119 6.5696H89.7823V8.00994H85.1119V6.5696ZM92.7077 10V1.27273H94.5529V8.47869H98.2944V10H92.7077ZM99.5163 10V1.27273H101.362V8.47869H105.103V10H99.5163ZM117.122 5.63636C117.122 6.58807 116.942 7.39773 116.581 8.06534C116.223 8.73295 115.734 9.2429 115.115 9.59517C114.499 9.9446 113.805 10.1193 113.036 10.1193C112.26 10.1193 111.564 9.94318 110.947 9.59091C110.331 9.23864 109.844 8.72869 109.486 8.06108C109.128 7.39347 108.949 6.58523 108.949 5.63636C108.949 4.68466 109.128 3.875 109.486 3.20739C109.844 2.53977 110.331 2.03125 110.947 1.68182C111.564 1.32955 112.26 1.15341 113.036 1.15341C113.805 1.15341 114.499 1.32955 115.115 1.68182C115.734 2.03125 116.223 2.53977 116.581 3.20739C116.942 3.875 117.122 4.68466 117.122 5.63636ZM115.251 5.63636C115.251 5.01989 115.159 4.5 114.974 4.0767C114.793 3.65341 114.536 3.33239 114.203 3.11364C113.871 2.89489 113.482 2.78551 113.036 2.78551C112.589 2.78551 112.2 2.89489 111.868 3.11364C111.536 3.33239 111.277 3.65341 111.092 4.0767C110.911 4.5 110.82 5.01989 110.82 5.63636C110.82 6.25284 110.911 6.77273 111.092 7.19602C111.277 7.61932 111.536 7.94034 111.868 8.15909C112.2 8.37784 112.589 8.48722 113.036 8.48722C113.482 8.48722 113.871 8.37784 114.203 8.15909C114.536 7.94034 114.793 7.61932 114.974 7.19602C115.159 6.77273 115.251 6.25284 115.251 5.63636ZM118.489 10V1.27273H121.932C122.591 1.27273 123.154 1.39062 123.62 1.62642C124.088 1.85937 124.445 2.19034 124.689 2.61932C124.936 3.04545 125.06 3.54687 125.06 4.12358C125.06 4.70312 124.935 5.2017 124.685 5.61932C124.435 6.03409 124.073 6.35227 123.598 6.57386C123.127 6.79545 122.556 6.90625 121.885 6.90625H119.58V5.4233H121.587C121.939 5.4233 122.232 5.375 122.465 5.27841C122.698 5.18182 122.871 5.03693 122.985 4.84375C123.101 4.65057 123.159 4.41051 123.159 4.12358C123.159 3.83381 123.101 3.58949 122.985 3.39062C122.871 3.19176 122.696 3.04119 122.461 2.93892C122.228 2.83381 121.934 2.78125 121.578 2.78125H120.334V10H118.489ZM123.202 6.02841L125.371 10H123.334L121.212 6.02841H123.202ZM129.458 10H126.364V1.27273H129.483C130.361 1.27273 131.117 1.44744 131.75 1.79688C132.384 2.14347 132.871 2.64205 133.212 3.29261C133.556 3.94318 133.728 4.72159 133.728 5.62784C133.728 6.53693 133.556 7.31818 133.212 7.97159C132.871 8.625 132.381 9.12642 131.742 9.47585C131.105 9.82528 130.344 10 129.458 10ZM128.209 8.41903H129.381C129.926 8.41903 130.385 8.32244 130.757 8.12926C131.132 7.93324 131.414 7.63068 131.601 7.22159C131.792 6.80966 131.887 6.27841 131.887 5.62784C131.887 4.98295 131.792 4.45597 131.601 4.04688C131.414 3.63778 131.134 3.33665 130.762 3.14347C130.39 2.95028 129.931 2.85369 129.385 2.85369H128.209V8.41903ZM135.094 10V1.27273H140.975V2.79403H136.94V4.87358H140.673V6.39489H136.94V8.47869H140.992V10H135.094ZM142.442 10V1.27273H145.885C146.544 1.27273 147.107 1.39062 147.573 1.62642C148.042 1.85937 148.398 2.19034 148.642 2.61932C148.89 3.04545 149.013 3.54687 149.013 4.12358C149.013 4.70312 148.888 5.2017 148.638 5.61932C148.388 6.03409 148.026 6.35227 147.551 6.57386C147.08 6.79545 146.509 6.90625 145.838 6.90625H143.533V5.4233H145.54C145.892 5.4233 146.185 5.375 146.418 5.27841C146.651 5.18182 146.824 5.03693 146.938 4.84375C147.054 4.65057 147.113 4.41051 147.113 4.12358C147.113 3.83381 147.054 3.58949 146.938 3.39062C146.824 3.19176 146.65 3.04119 146.414 2.93892C146.181 2.83381 145.887 2.78125 145.532 2.78125H144.287V10H142.442ZM147.155 6.02841L149.324 10H147.287L145.165 6.02841H147.155ZM155.051 3.78267C155.017 3.43892 154.871 3.17187 154.613 2.98153C154.354 2.79119 154.003 2.69602 153.56 2.69602C153.259 2.69602 153.005 2.73864 152.797 2.82386C152.59 2.90625 152.431 3.02131 152.32 3.16903C152.212 3.31676 152.158 3.48438 152.158 3.67188C152.152 3.82812 152.185 3.96449 152.256 4.08097C152.33 4.19744 152.431 4.2983 152.559 4.38352C152.686 4.46591 152.834 4.53835 153.002 4.60085C153.169 4.66051 153.348 4.71165 153.539 4.75426L154.323 4.94176C154.703 5.02699 155.053 5.14062 155.371 5.28267C155.689 5.42472 155.965 5.59943 156.198 5.80682C156.431 6.0142 156.611 6.25852 156.739 6.53977C156.87 6.82102 156.936 7.14347 156.939 7.5071C156.936 8.04119 156.8 8.50426 156.53 8.89631C156.263 9.28551 155.877 9.58807 155.371 9.80398C154.868 10.017 154.262 10.1236 153.551 10.1236C152.847 10.1236 152.233 10.0156 151.711 9.79972C151.191 9.58381 150.784 9.2642 150.492 8.84091C150.202 8.41477 150.05 7.88778 150.036 7.25994H151.821C151.841 7.55256 151.925 7.79687 152.073 7.9929C152.223 8.18608 152.424 8.33239 152.674 8.43182C152.926 8.52841 153.212 8.5767 153.53 8.5767C153.843 8.5767 154.114 8.53125 154.344 8.44034C154.577 8.34943 154.757 8.22301 154.885 8.06108C155.013 7.89915 155.077 7.71307 155.077 7.50284C155.077 7.30682 155.019 7.14205 154.902 7.00852C154.789 6.875 154.621 6.76136 154.4 6.66761C154.181 6.57386 153.912 6.48864 153.594 6.41193L152.644 6.1733C151.908 5.99432 151.327 5.71449 150.901 5.33381C150.475 4.95312 150.263 4.44034 150.266 3.79545C150.263 3.26705 150.404 2.8054 150.688 2.41051C150.975 2.01562 151.368 1.70739 151.868 1.4858C152.368 1.2642 152.936 1.15341 153.573 1.15341C154.221 1.15341 154.786 1.2642 155.269 1.4858C155.755 1.70739 156.132 2.01562 156.402 2.41051C156.672 2.8054 156.811 3.26278 156.82 3.78267H155.051ZM168.978 5.63636C168.978 6.58807 168.797 7.39773 168.436 8.06534C168.078 8.73295 167.59 9.2429 166.971 9.59517C166.354 9.9446 165.661 10.1193 164.891 10.1193C164.115 10.1193 163.419 9.94318 162.803 9.59091C162.186 9.23864 161.699 8.72869 161.341 8.06108C160.983 7.39347 160.804 6.58523 160.804 5.63636C160.804 4.68466 160.983 3.875 161.341 3.20739C161.699 2.53977 162.186 2.03125 162.803 1.68182C163.419 1.32955 164.115 1.15341 164.891 1.15341C165.661 1.15341 166.354 1.32955 166.971 1.68182C167.59 2.03125 168.078 2.53977 168.436 3.20739C168.797 3.875 168.978 4.68466 168.978 5.63636ZM167.107 5.63636C167.107 5.01989 167.015 4.5 166.83 4.0767C166.648 3.65341 166.391 3.33239 166.059 3.11364C165.726 2.89489 165.337 2.78551 164.891 2.78551C164.445 2.78551 164.056 2.89489 163.723 3.11364C163.391 3.33239 163.132 3.65341 162.948 4.0767C162.766 4.5 162.675 5.01989 162.675 5.63636C162.675 6.25284 162.766 6.77273 162.948 7.19602C163.132 7.61932 163.391 7.94034 163.723 8.15909C164.056 8.37784 164.445 8.48722 164.891 8.48722C165.337 8.48722 165.726 8.37784 166.059 8.15909C166.391 7.94034 166.648 7.61932 166.83 7.19602C167.015 6.77273 167.107 6.25284 167.107 5.63636ZM171.429 1.27273L173.538 7.90341H173.619L175.733 1.27273H177.778L174.77 10H172.392L169.379 1.27273H171.429ZM178.829 10V1.27273H184.71V2.79403H180.674V4.87358H184.407V6.39489H180.674V8.47869H184.727V10H178.829ZM186.176 10V1.27273H189.62C190.279 1.27273 190.841 1.39062 191.307 1.62642C191.776 1.85937 192.132 2.19034 192.377 2.61932C192.624 3.04545 192.748 3.54687 192.748 4.12358C192.748 4.70312 192.623 5.2017 192.373 5.61932C192.123 6.03409 191.76 6.35227 191.286 6.57386C190.814 6.79545 190.243 6.90625 189.573 6.90625H187.267V5.4233H189.275C189.627 5.4233 189.919 5.375 190.152 5.27841C190.385 5.18182 190.559 5.03693 190.672 4.84375C190.789 4.65057 190.847 4.41051 190.847 4.12358C190.847 3.83381 190.789 3.58949 190.672 3.39062C190.559 3.19176 190.384 3.04119 190.148 2.93892C189.915 2.83381 189.621 2.78125 189.266 2.78125H188.022V10H186.176ZM190.89 6.02841L193.059 10H191.022L188.9 6.02841H190.89ZM199.71 11.0909V0.181818H200.408V11.0909H199.71ZM201.563 3.78267C201.529 3.43892 201.383 3.17187 201.124 2.98153C200.866 2.79119 200.515 2.69602 200.072 2.69602C199.771 2.69602 199.516 2.73864 199.309 2.82386C199.102 2.90625 198.942 3.02131 198.832 3.16903C198.724 3.31676 198.67 3.48438 198.67 3.67188C198.664 3.82812 198.697 3.96449 198.768 4.08097C198.842 4.19744 198.942 4.2983 199.07 4.38352C199.198 4.46591 199.346 4.53835 199.513 4.60085C199.681 4.66051 199.86 4.71165 200.05 4.75426L200.835 4.94176C201.215 5.02699 201.565 5.14062 201.883 5.28267C202.201 5.42472 202.477 5.59943 202.71 5.80682C202.942 6.0142 203.123 6.25852 203.251 6.53977C203.381 6.82102 203.448 7.14347 203.451 7.5071C203.448 8.04119 203.312 8.50426 203.042 8.89631C202.775 9.28551 202.388 9.58807 201.883 9.80398C201.38 10.017 200.773 10.1236 200.063 10.1236C199.359 10.1236 198.745 10.0156 198.222 9.79972C197.702 9.58381 197.296 9.2642 197.004 8.84091C196.714 8.41477 196.562 7.88778 196.548 7.25994H198.333C198.353 7.55256 198.437 7.79687 198.585 7.9929C198.735 8.18608 198.935 8.33239 199.185 8.43182C199.438 8.52841 199.724 8.5767 200.042 8.5767C200.354 8.5767 200.626 8.53125 200.856 8.44034C201.089 8.34943 201.269 8.22301 201.397 8.06108C201.525 7.89915 201.589 7.71307 201.589 7.50284C201.589 7.30682 201.531 7.14205 201.414 7.00852C201.3 6.875 201.133 6.76136 200.911 6.66761C200.692 6.57386 200.424 6.48864 200.106 6.41193L199.156 6.1733C198.42 5.99432 197.839 5.71449 197.413 5.33381C196.987 4.95312 196.775 4.44034 196.778 3.79545C196.775 3.26705 196.915 2.8054 197.2 2.41051C197.487 2.01562 197.88 1.70739 198.38 1.4858C198.88 1.2642 199.448 1.15341 200.085 1.15341C200.732 1.15341 201.298 1.2642 201.781 1.4858C202.266 1.70739 202.644 2.01562 202.914 2.41051C203.184 2.8054 203.323 3.26278 203.332 3.78267H201.563ZM204.986 10L208.604 2.84091V2.78125H204.39V1.27273H210.513V2.80256L206.891 10H204.986ZM214.848 10.1193C214.246 10.1193 213.709 10.0085 213.237 9.78693C212.768 9.56534 212.396 9.25994 212.121 8.87074C211.845 8.48153 211.702 8.03551 211.69 7.53267H213.48C213.5 7.87074 213.642 8.14489 213.906 8.35511C214.17 8.56534 214.484 8.67045 214.848 8.67045C215.138 8.67045 215.393 8.60653 215.615 8.47869C215.839 8.34801 216.014 8.16761 216.139 7.9375C216.267 7.70455 216.331 7.4375 216.331 7.13636C216.331 6.82955 216.266 6.55966 216.135 6.3267C216.007 6.09375 215.83 5.91193 215.602 5.78125C215.375 5.65057 215.115 5.58381 214.822 5.58097C214.567 5.58097 214.318 5.63352 214.077 5.73864C213.838 5.84375 213.652 5.98722 213.518 6.16903L211.878 5.875L212.291 1.27273H217.626V2.78125H213.812L213.587 4.96733H213.638C213.791 4.75142 214.023 4.57244 214.332 4.4304C214.642 4.28835 214.989 4.21733 215.372 4.21733C215.898 4.21733 216.366 4.34091 216.778 4.58807C217.19 4.83523 217.516 5.17472 217.754 5.60653C217.993 6.03551 218.111 6.52983 218.108 7.08949C218.111 7.67756 217.974 8.20028 217.699 8.65767C217.426 9.11222 217.044 9.47017 216.553 9.73153C216.064 9.99006 215.496 10.1193 214.848 10.1193Z" fill="#282828"/>
</svg>
