<svg width="23" height="25" viewBox="0 0 23 25" fill="none" xmlns="http://www.w3.org/2000/svg">
<path d="M22.4164 9.60921C21.7084 9.71627 20.9951 9.82334 20.2925 9.87687C19.9413 9.90364 19.6008 9.92505 19.2603 9.93576C18.9199 9.94647 18.601 9.93576 18.2984 9.90899C18.1417 9.89829 18.0066 9.87152 17.8715 9.8394C17.7472 9.81263 17.6283 9.78051 17.531 9.74304C17.4445 9.70557 17.3743 9.66809 17.3473 9.63597C17.3203 9.60921 17.3203 9.60921 17.3257 9.60921C17.3311 9.60921 17.3257 9.60921 17.3257 9.56103C17.3257 9.51285 17.3257 9.4379 17.3365 9.34154C17.3635 9.14882 17.4554 8.88116 17.558 8.60278C17.7904 8.04604 18.1201 7.45717 18.493 6.87901C18.8604 6.30086 19.2711 5.7227 19.6981 5.14454C20.1142 4.56638 20.5627 4.00964 21.0113 3.44218C21.4598 2.87473 21.9192 2.31799 22.3839 1.75589L20.2385 0C19.2928 1.1349 18.3416 2.24304 17.3581 3.303C16.8609 3.83298 16.3637 4.34154 15.8503 4.81263C15.3369 5.28373 14.8073 5.73876 14.2831 6.08137C14.0183 6.25268 13.7697 6.39722 13.532 6.49358C13.4131 6.54176 13.3104 6.57923 13.2131 6.60064C13.1158 6.62206 13.0456 6.62741 12.9807 6.62741C12.9213 6.62741 12.8727 6.62741 12.8348 6.606C12.7862 6.59529 12.7375 6.57923 12.6781 6.53105C12.5592 6.4454 12.3971 6.26874 12.262 6.03854C12.1161 5.80835 11.9918 5.52998 11.8621 5.23019C11.7432 4.93041 11.6405 4.60385 11.5432 4.2773C11.446 3.95075 11.3595 3.60278 11.2784 3.25482C11.2028 2.90685 11.1325 2.56424 11.0569 2.20557L10.7434 0.647752L9.0195 1.10814L8.96006 2.28051C8.8898 3.7152 8.80334 5.13919 8.58177 6.49893C8.46288 7.17345 8.31156 7.82655 8.08459 8.42612L7.99812 8.64561L7.90085 8.85974L7.85221 8.96681L7.79276 9.07388L7.69549 9.29336C7.53877 9.56103 7.37664 9.82334 7.17129 10.0642C6.78219 10.5567 6.28501 10.9797 5.73919 11.3651C5.18797 11.7559 4.58271 12.0985 3.95042 12.4197C2.69666 13.0514 1.35103 13.6135 0 14.1595L0.437735 15.6799C1.14568 15.5353 1.85902 15.4015 2.56696 15.3051C3.27491 15.2088 3.97744 15.1499 4.64215 15.182C4.80968 15.1927 4.961 15.2088 5.11772 15.2302C5.27444 15.257 5.40954 15.2891 5.54464 15.3266C5.66894 15.364 5.78783 15.4229 5.86349 15.4818C5.94995 15.5407 6.0094 15.5996 6.05804 15.6638C6.10667 15.7334 6.13369 15.8084 6.15531 15.9261C6.17693 16.0332 6.17693 16.1563 6.16612 16.3009C6.1445 16.5792 6.04723 16.8897 5.94455 17.2056C5.71217 17.8319 5.38252 18.4582 5.02044 19.0739C4.65836 19.6895 4.25305 20.2891 3.84234 20.8833C3.0047 22.0771 2.11842 23.2334 1.20512 24.379L1.97791 25C2.64803 24.2184 3.31273 23.4315 3.95583 22.6231C4.24765 22.2752 4.55028 21.9379 4.85291 21.6006C5.35009 21.0546 5.86349 20.5246 6.3985 20.0214C6.93351 19.5182 7.49013 19.0418 8.08999 18.6456C8.39262 18.4422 8.70066 18.2709 9.02491 18.137C9.19243 18.0675 9.34375 18.0193 9.51128 17.9818C9.67881 17.9443 9.84093 17.9336 9.99765 17.9336C10.3165 17.9443 10.6191 18.0514 10.8839 18.2495C11.1487 18.4529 11.3595 18.7313 11.5378 19.031C11.8999 19.6467 12.1323 20.348 12.3268 21.0546C12.4241 21.4133 12.4998 21.7666 12.5808 22.1306C12.6133 22.2805 12.6403 22.4358 12.6673 22.5857C12.8294 22.5107 12.9915 22.4304 13.1537 22.3501L13.1861 22.1413C13.2455 21.7827 13.305 21.4293 13.359 21.0707C13.4779 20.3587 13.6238 19.6574 13.7968 18.9615C13.9697 18.2762 14.1859 17.6017 14.4777 16.9968L14.5858 16.7666L14.7047 16.5471L14.7641 16.44L14.8344 16.333L14.9586 16.1188C15.1424 15.8512 15.3369 15.5889 15.5693 15.3587C16.007 14.8769 16.5421 14.4807 17.1257 14.1274C17.6985 13.7687 18.3308 13.4743 18.9739 13.1852C19.617 12.8961 20.2871 12.6445 20.9572 12.3983C21.6273 12.1467 22.3191 11.9058 23 11.6649L22.4164 9.60921ZM16.18 12.8051C15.5747 13.2602 14.9749 13.8062 14.4885 14.454C14.2345 14.7698 14.0291 15.1178 13.8346 15.4764L13.7103 15.7441L13.64 15.8779L13.5806 16.0118L13.4725 16.2794L13.3752 16.5578C13.1212 17.2966 12.9861 18.0514 12.8997 18.7901C12.8132 19.5289 12.7754 20.273 12.7538 21.0064C12.7538 21.1242 12.7538 21.2366 12.743 21.3544C12.7159 21.2313 12.6943 21.1028 12.6673 20.9797C12.4998 20.2463 12.2998 19.5075 11.9377 18.8223C11.754 18.4743 11.5216 18.1478 11.1974 17.8694C11.0406 17.7355 10.8569 17.6178 10.6516 17.5321C10.4462 17.4465 10.2354 17.3983 10.0193 17.3769C9.8031 17.3555 9.59234 17.3769 9.38698 17.4143C9.18163 17.4518 8.98708 17.5107 8.79253 17.5803C8.41424 17.7248 8.06297 17.8961 7.73332 18.0996C7.3172 18.3619 6.9227 18.6403 6.54441 18.9347C6.77679 18.5278 6.99295 18.1156 7.17669 17.666C7.3226 17.2912 7.45771 16.8951 7.51715 16.4454C7.54417 16.2259 7.55498 15.985 7.51715 15.7227C7.47932 15.4711 7.39826 15.1927 7.24695 14.9518C7.10103 14.7002 6.89568 14.4968 6.67411 14.3469C6.45794 14.1916 6.22556 14.0846 6.0148 14.0096C5.69596 13.8919 5.39333 13.8383 5.0907 13.7955C5.64732 13.5171 6.19854 13.2066 6.74436 12.8533C7.40367 12.4197 8.04676 11.9004 8.58177 11.2634C8.85197 10.9529 9.09516 10.6103 9.31133 10.2516L9.46804 9.98394L9.5437 9.85011L9.61396 9.71627L9.74906 9.4379L9.86795 9.15953C10.0625 8.67773 10.2192 8.18522 10.3435 7.69807C10.5273 7.96574 10.7542 8.24946 11.0515 8.49572C11.273 8.68844 11.5594 8.85974 11.8621 8.98822C12.1647 9.11135 12.4944 9.19165 12.8078 9.20771C13.1212 9.22912 13.4185 9.20771 13.7049 9.15953C13.9751 9.11135 14.2291 9.0364 14.4615 8.9454C14.5804 8.89722 14.683 8.85974 14.8019 8.81156C14.7911 8.89722 14.7749 8.98287 14.7641 9.07388C14.7371 9.34154 14.7371 9.63062 14.7857 9.95182C14.8344 10.2677 14.9532 10.6156 15.1532 10.9315C15.3477 11.2473 15.618 11.5096 15.8936 11.6916C16.1638 11.8737 16.4394 11.9914 16.7042 12.0771C16.8393 12.1253 16.9744 12.152 17.1041 12.1842C16.7798 12.3715 16.4826 12.5803 16.18 12.8051Z" fill="#282828"/>
</svg>
