<svg width="1147" height="315" viewBox="0 0 1147 315" fill="none" xmlns="http://www.w3.org/2000/svg">
<path d="M820.133 72.2666C814.8 83.7333 812.133 87.9999 810.133 88.3999C808.533 88.7999 800.533 89.8666 792.4 90.7999L777.333 92.3999L790.267 104.533L803.067 116.667L800.133 132C798.667 140.4 797.333 148.133 797.333 149.067C797.333 150.133 801.067 148.667 807.067 145.333C812.267 142.267 819.2 138.667 822.133 137.067L827.733 134.267L842.8 142.533C851.067 146.933 857.867 150.533 858 150.267C858.267 150.133 856.8 142.533 855.067 133.333L851.733 116.667L864.4 104.533L877.067 92.3999L859.6 90.2666C849.867 89.0666 841.867 87.5999 841.6 87.0666C841.467 86.3999 838.133 79.4666 834.267 71.4666L827.2 56.7999L820.133 72.2666Z" fill="#FF4D39"/>
<path d="M933.467 72.2666C928.133 83.7333 925.467 87.9999 923.467 88.3999C921.867 88.7999 913.867 89.8666 905.733 90.7999L890.667 92.3999L903.6 104.533L916.4 116.667L913.467 132C912 140.4 910.667 148.133 910.667 149.067C910.667 150.133 914.4 148.667 920.4 145.333C925.6 142.267 932.533 138.667 935.467 137.067L941.067 134.267L956.133 142.533C964.4 146.933 971.2 150.533 971.333 150.267C971.6 150.133 970.133 142.533 968.4 133.333L965.067 116.667L977.733 104.533L990.4 92.3999L972.933 90.2666C963.2 89.0666 955.2 87.5999 954.933 87.0666C954.8 86.3999 951.467 79.4666 947.6 71.4666L940.533 56.7999L933.467 72.2666Z" fill="#FF4D39"/>
<path d="M1046.8 72.2666C1041.47 83.7333 1038.8 88 1036.8 88.4C1035.2 88.8 1027.2 89.8666 1019.07 90.8L1004 92.4L1016.93 104.533L1029.73 116.667L1026.8 132C1025.33 140.4 1024 148.133 1024 149.067C1024 150.133 1027.73 148.667 1033.73 145.333C1038.93 142.267 1045.73 138.667 1048.8 137.067L1054.27 134.267L1068.8 142.133C1076.8 146.533 1083.6 150.133 1084.13 150.4C1084.53 150.533 1083.47 143.067 1081.73 133.733L1078.4 116.667L1091.07 104.533L1103.73 92.4L1086.27 90.2666C1076.53 89.0666 1068.53 87.6 1068.27 87.0666C1068.13 86.4 1064.8 79.4666 1060.93 71.4666L1053.87 56.8L1046.8 72.2666Z" fill="#FF4D39"/>
<path d="M592.667 72.7999C588.4 82.2666 585.2 87.3333 583.333 87.9999C581.867 88.5333 573.733 89.7333 565.333 90.6666L550.133 92.3999L563.067 104.533L576 116.667L572.8 133.333C571.067 142.533 569.733 150.133 569.867 150.267C570 150.533 576.933 146.933 585.2 142.4C602.4 133.067 598.4 132.8 619.733 144.667C625.733 148 630.667 150.133 630.667 149.333C630.667 148.667 629.467 141.867 628 134.4C626.533 126.8 625.333 119.467 625.333 118.133C625.333 116.533 630.267 110.933 637.333 104.267C644 98.1333 649.333 92.7999 649.067 92.6666C648.8 92.3999 642.667 91.5999 635.333 90.7999C613.6 88.2666 615.867 89.7333 607.867 73.1999C604 65.1999 600.4 58.6666 600 58.6666C599.467 58.6666 596.133 65.0666 592.667 72.7999Z" fill="#FF4D39"/>
<path d="M706 72.8C701.733 82.2667 698.667 87.2 696.8 88C695.2 88.5333 687.067 89.7333 678.667 90.6667L663.467 92.4L676.4 104.533L689.467 116.667L686.133 133.333C684.267 142.4 682.933 150 683.2 150.267C683.333 150.4 690.267 146.933 698.533 142.4C715.733 133.067 711.733 132.8 733.067 144.667C739.067 148 744 150.133 744 149.333C744 148.667 742.8 141.867 741.333 134.4C739.867 126.8 738.667 119.467 738.667 118.133C738.667 116.533 743.6 110.933 750.667 104.267C757.333 98.1333 762.667 92.8 762.4 92.6667C762.133 92.4 756 91.6 748.667 90.8C726.667 88.2667 728.933 89.7333 721.2 73.2C717.333 65.2 713.867 58.6667 713.333 58.6667C712.933 58.6667 709.6 65.0667 706 72.8Z" fill="#FF4D39"/>
<path d="M41.3334 92C41.3334 113.333 41.6 117.333 43.3334 117.333C44.8 117.333 45.3334 114.933 45.6 106.267L46 95.3334H52H58L64 106.267C68.6667 114.933 70.6667 117.333 72.9334 117.333C75.7334 117.333 75.4667 116.533 69.0667 105.733C62.6667 94.8 62.4 94.1334 64.8 92.5334C70.4 88.6667 72 86.1334 72 81.0667C72 70.5334 66.2667 66.6667 50.6667 66.6667H41.3334V92ZM64.2667 74.2667C65.7334 75.6 66.6667 78.2667 66.6667 81.4667C66.6667 88.1334 63.0667 90.6667 53.7334 90.6667H46.6667V81.3334V72H54.2667C59.3334 72 62.5334 72.6667 64.2667 74.2667Z" fill="#344B5C"/>
<path d="M85.3334 92V117.333H98.6667C109.467 117.333 112 116.933 112 115.333C112 113.867 109.6 113.333 101.067 113.067L90 112.667L89.6 102.933L89.2 93.3334H100.667C109.733 93.3334 112 92.9334 112 91.3334C112 89.8667 109.6 89.3334 101.067 89.0667L90 88.6667V80V71.3334L101.067 70.9334C109.6 70.6667 112 70.1334 112 68.6667C112 67.0667 109.467 66.6667 98.6667 66.6667H85.3334V92Z" fill="#344B5C"/>
<path d="M124.933 83.6C128.267 93.0666 132.267 104.4 133.733 109.067C136 115.867 137.067 117.333 139.2 117.067C141.867 116.667 142 116.4 154.8 80.9333C159.467 68 159.733 66.6666 157.467 66.6666C155.467 66.6666 153.6 70.2666 148.667 83.6C145.333 93.0666 142.133 102.267 141.733 104.4C140.8 109.333 138.933 110.133 137.6 106.4C136.933 104.667 133.6 95.0666 130.133 84.9333C124.933 70.4 123.2 66.6666 121.2 66.6666C119.067 66.6666 119.467 68.4 124.933 83.6Z" fill="#344B5C"/>
<path d="M168 92C168 116.4 168.133 117.333 170.667 117.333C173.2 117.333 173.333 116.4 173.333 92C173.333 67.6 173.2 66.6667 170.667 66.6667C168.133 66.6667 168 67.6 168 92Z" fill="#344B5C"/>
<path d="M188 92V117.333H202C213.6 117.333 216 116.933 216 115.333C216 113.733 213.867 113.333 204.667 113.333H193.333V103.333V93.3334H204C212.533 93.3334 214.667 92.9334 214.667 91.3334C214.667 89.7334 212.533 89.3334 204 89.3334H193.333V80V70.6667H204.667C213.867 70.6667 216 70.2667 216 68.6667C216 67.0667 213.6 66.6667 202 66.6667H188V92Z" fill="#344B5C"/>
<path d="M223.067 68.5334C223.467 69.6 226.267 79.7334 229.2 90.9334C232.267 102.133 235.067 112.667 235.467 114.267C235.867 116 237.333 117.333 238.667 117.333C240.4 117.333 241.867 114 245.333 102.267C247.733 94.1334 250.533 84.4 251.6 80.8C252.667 77.2 254 74.8 254.533 75.4667C255.067 76.1334 258.133 85.8667 261.467 97.0667C266.533 114.667 267.733 117.333 269.867 117.067C272 116.667 273.467 112.667 278.933 92.6667C282.4 79.4667 285.333 68.2667 285.333 67.6C285.333 67.0667 284.267 66.6667 283.067 66.6667C281.067 66.6667 279.867 70.1334 276.267 85.0667C270.267 109.333 270.533 108.4 269.333 107.2C268.8 106.533 265.733 97.2 262.533 86.2667C257.6 69.2 256.4 66.6667 254 66.6667C251.6 66.6667 250.533 69.2 245.333 87.3334C242.133 98.6667 239.067 107.6 238.533 107.067C238 106.4 235.733 98.5334 233.467 89.3334C231.2 80.1334 228.933 71.3334 228.533 69.6C228 67.8667 226.667 66.6667 225.067 66.6667C223.333 66.6667 222.667 67.3334 223.067 68.5334Z" fill="#344B5C"/>
<path d="M294.667 92V117.333H308.667C320.267 117.333 322.667 116.933 322.667 115.333C322.667 113.733 320.533 113.333 311.333 113.333H300V103.333V93.3334H310.667C319.067 93.3334 321.333 92.9334 321.333 91.3334C321.333 89.8667 318.933 89.3334 311.067 89.0667L300.667 88.6667L300.267 79.6L299.867 70.6667H311.333C320.533 70.6667 322.667 70.2667 322.667 68.6667C322.667 67.0667 320.267 66.6667 308.667 66.6667H294.667V92Z" fill="#344B5C"/>
<path d="M334.667 92.1334V117.733L346.4 117.067C358.667 116.4 363.867 114.533 368.933 109.067C375.467 102.133 376.667 88.5334 371.733 78.6667C367.333 70.0001 360.133 66.6667 345.733 66.6667H334.667V92.1334ZM360 73.0667C372.133 79.0667 372.533 102.667 360.667 109.467C358.533 110.8 353.067 112 348.667 112.267L340.667 112.667L340.267 91.6001L339.867 70.6667H347.6C352.267 70.6667 357.2 71.6001 360 73.0667Z" fill="#344B5C"/>
<path d="M414.667 69.6C406.267 75.4667 404.667 78.9334 404.667 92C404.667 104.8 406 108.133 413.867 113.867C419.067 117.867 434.267 117.867 439.467 113.867C446.667 108.533 448.533 104.533 449.067 94C449.733 81.4667 446.533 74 438.8 69.6C431.6 65.6 420.667 65.6 414.667 69.6ZM436 72.6667C441.733 75.6 444.4 81.7334 444.4 92C444.4 106.667 438.667 113.333 426 113.333C420.933 113.333 419.067 112.533 415.067 108.8C410.267 104.4 410 103.867 409.6 94.2667C408.933 82.8 411.2 76.6667 417.067 73.0667C421.6 70.1334 430.933 70 436 72.6667Z" fill="#344B5C"/>
<path d="M462.667 92C462.667 113.6 462.933 117.333 464.667 117.333C466.4 117.333 466.667 114 466.667 95.8667C466.667 78.5334 466.933 74.8 468.4 76.2667C469.333 77.2 475.733 86.8 482.667 97.6C492.8 113.2 496 117.2 498.4 117.333H501.333V92C501.333 70.5334 501.067 66.6667 499.333 66.6667C497.733 66.6667 497.333 70.2667 497.067 88.2667L496.667 110L482.267 88.2667C462.667 58.8 462.667 58.8 462.667 92Z" fill="#344B5C"/>
<path d="M161.333 230.667V293.333H170.667H180V230.667V168H170.667H161.333V230.667Z" fill="#1C313A"/>
<path d="M422.667 230.667V293.333H432H441.333V268.267C441.333 240.8 442.8 234.667 449.867 230C454.533 226.933 464.267 225.867 469.2 228C476.4 230.933 477.333 235.333 477.333 265.867V293.333H486.667H496V264.133C496 232.533 495.2 227.733 488.4 218.933C480.8 208.933 462.133 204.933 449.467 210.667C446.267 212.133 443.2 213.333 442.533 213.333C441.867 213.333 441.333 203.067 441.333 190.667V168H432H422.667V230.667Z" fill="#1C313A"/>
<path d="M83.7334 174.533C75.0667 177.333 64.9334 183.467 59.7334 188.933C45.6 203.733 39.3334 229.2 44.6667 250C47.7334 261.733 51.4667 268.667 59.6 277.467C72.4 291.2 91.4667 297.733 110.267 294.8C121.333 293.067 136.267 286 142.667 279.467L147.2 274.667L140.667 268L134.267 261.467L128.933 266.267C112.933 280.667 89.2 280.133 73.7334 265.067C64.9334 256.4 62 248.533 62 233.333C62.1334 222.267 62.5334 219.733 65.7334 213.067C70.2667 204 79.0667 195.733 87.6 192.8C101.067 188.133 118.133 191.467 128.933 200.667L134.267 205.2L140.8 198.533L147.333 191.733L142 187.067C139.067 184.4 132.267 180.267 126.933 177.6C118.133 173.467 115.733 172.8 104.267 172.4C94.1334 172.133 89.6 172.533 83.7334 174.533Z" fill="#1C313A"/>
<path d="M296 195.333V209.333H288.667H281.333V217.867V226.533L288.4 226.933L295.333 227.333L295.733 260.4L296 293.333H305.333H314.667V260V226.667H322.667H330.667V218V209.333H322.667H314.667V195.333V181.333H305.333H296V195.333Z" fill="#1C313A"/>
<path d="M364.667 209.733C352.667 213.733 344.267 220.8 338.533 232C335.733 237.2 335.333 239.867 335.333 251.333C335.333 263.2 335.733 265.333 338.933 271.467C343.733 280.533 354.267 289.867 363.067 292.8C373.733 296.4 387.067 295.867 396.8 291.467C401.067 289.467 406.4 286.267 408.4 284.267L412.267 280.667L405.067 274.4C398.133 268.267 398 268.133 395.333 270.533C390.533 274.933 386.133 276.4 378.533 276.4C364 276.4 354.4 267.333 353.6 252.8C353.067 243.067 355.6 237.467 363.067 231.467C367.733 227.733 369.067 227.333 377.867 227.333C386.267 227.333 388.267 227.867 393.2 231.067L398.933 234.933L405.467 228.533C413.067 220.933 412.8 220.267 399.6 213.2C392.533 209.467 389.733 208.8 380.667 208.4C374.267 208.133 367.867 208.8 364.667 209.733Z" fill="black"/>
<path d="M197.333 236C197.333 266.133 198.4 273.467 204.4 282.267C212.8 294.667 230.8 299.067 245.733 292.267C251.067 289.867 252.267 289.733 252.933 291.333C253.467 292.8 256 293.333 262.8 293.333H272V251.333V209.333H262.8H253.6L253.067 235.6C252.667 259.2 252.4 262.533 250 266.667C246.267 272.8 239.733 276.4 231.867 276.533C226.667 276.667 224.8 276 222 273.2C216.933 268.267 216.133 262.4 216 234.267V209.333H206.667H197.333V236Z" fill="#1C313A"/>
<path d="M719.733 215.6C714.533 216.4 708.4 223.067 706.533 229.733C705.733 232.8 705.333 239.6 705.6 244.8C706.667 260.133 712.267 266.667 724.4 266.667C735.733 266.667 741.2 258.267 741.333 240.667C741.333 222.533 733.733 213.6 719.733 215.6ZM728.267 222.8C734.533 226.133 737.067 245.333 732.267 254.667C726.267 266.8 714.133 261.067 712.4 245.2C710.8 228.667 718.533 217.6 728.267 222.8Z" fill="#344B5C"/>
<path d="M991.333 215.867C980.667 218.4 974.4 227.867 974.533 241.067C974.533 257.333 982.667 266.667 996.667 266.667C1009.33 266.667 1017.33 259.2 1017.33 247.467V241.333H1008C999.6 241.333 998.667 241.6 998.667 244C998.667 246.267 999.6 246.667 1004.67 246.667C1009.87 246.667 1010.67 247.067 1010.67 249.467C1010.67 250.933 1008.93 254 1006.8 256.133C1003.6 259.2 1001.73 260 997.067 260C986.8 260 981.333 253.067 981.333 240.4C981.333 223.6 998.133 215.467 1007.6 227.333C1009.87 230.133 1012.53 232 1014.4 232C1018 232 1018.13 230.4 1015.07 225.067C1010.67 217.867 1000.27 213.733 991.333 215.867Z" fill="#344B5C"/>
<path d="M650.133 218.267C649.867 219.6 649.067 225.467 648.533 231.2L647.6 241.733L654.133 240.8C664.8 239.2 667.067 239.467 670.267 243.333C674.267 248 674.267 253.867 670 258C665.6 262.533 660.667 262.267 656 257.333C652 253.067 646.667 252 646.667 255.467C646.667 256.667 648.667 259.6 651.2 262.133C655.067 266 656.667 266.667 661.867 266.667C673.2 266.667 680 260.4 680 250C680 238 668.133 229.6 658.4 234.8C654.8 236.667 654.533 236.133 655.467 228.933L656.4 222.667H666.8C677.2 222.667 677.333 222.667 677.333 219.333C677.333 216 677.333 216 664.133 216C652.667 216 650.8 216.267 650.133 218.267Z" fill="#344B5C"/>
<path d="M770.667 241.2V266.667H774C777.067 266.667 777.2 266.267 777.6 256.933L778 247.333L783.333 246.933L788.8 246.533L794 256.533C799.067 266 799.6 266.667 803.733 266.667H808.267L805.6 262.267C804.267 260 801.6 255.467 800 252.4L796.933 246.8L801.067 242.8C804.8 239.467 805.333 238 805.333 232.133C805.333 226.533 804.667 224.667 801.467 221.067C797.6 216.667 797.333 216.667 784.133 216.267L770.667 215.733V241.2ZM796.533 225.6C802.267 233.733 796.533 241.333 784.533 241.333H777.333V232V222.667H785.867C793.333 222.667 794.8 223.067 796.533 225.6Z" fill="#344B5C"/>
<path d="M821.333 240.133C816.533 253.467 812.533 264.933 812.267 265.467C812 266.133 813.467 266.667 815.6 266.667C819.067 266.667 819.733 265.867 821.867 260L824.267 253.333H834.533H844.8L846.8 259.6C848.533 265.2 849.333 266 852.933 266.4L856.933 266.8L848 241.733L838.933 216.667L834.533 216.267L830 215.867L821.333 240.133ZM838.8 236.667L842.533 246.667H834.4C828.533 246.667 826.533 246.267 826.933 244.933C827.333 244.133 828.933 239.2 830.667 234.267C832.267 229.2 834 225.467 834.4 226C834.8 226.4 836.8 231.2 838.8 236.667Z" fill="#344B5C"/>
<path d="M856 219.333C856 222.533 856.4 222.667 864 222.667H872V244.667V266.667H875.333H878.667V244.667V222.667H886.667C894.267 222.667 894.667 222.533 894.667 219.333V216H875.333H856V219.333Z" fill="#344B5C"/>
<path d="M904 241.333V266.667H908H912V241.333V216H908H904V241.333Z" fill="#344B5C"/>
<path d="M922.667 241.333V266.667H926.667H930.533L930.933 247.867L931.333 229.067L944.4 247.867C955.2 263.467 958 266.667 960.667 266.667H964V241.333V216H960.667H957.333V234.8C957.333 245.067 956.8 253.2 956.133 252.8C955.6 252.4 949.467 244 942.533 234C931.6 218.133 929.733 216 926.4 216H922.667V241.333Z" fill="#344B5C"/>
<path d="M372.267 239.6C367.333 242 364 247.333 364 252.8C364 257.6 371.867 265.333 376.933 265.333C386.8 265.333 394.267 254.8 390 246.667C388 242.8 380.933 237.333 378 237.333C377.333 237.333 374.667 238.4 372.267 239.6Z" fill="#ED5145"/>
<path d="M689.2 259.467C686.933 262.267 689.2 266 693.467 266C697.067 266 698.4 262.267 696 259.333C693.867 256.8 691.467 256.8 689.2 259.467Z" fill="#344B5C"/>
</svg>
