<svg width="18" height="33" viewBox="0 0 18 33" fill="none" xmlns="http://www.w3.org/2000/svg">
<path fill-rule="evenodd" clip-rule="evenodd" d="M17.5 0.949187V6.0351C17.467 6.03421 17.434 6.03197 17.401 6.03197C16.4322 6.03197 15.4633 6.03242 14.4945 6.03197C14.1993 6.03197 13.9051 6.04496 13.6118 6.08482C13.3657 6.11841 13.125 6.16992 12.8918 6.25502C12.4743 6.40731 12.1314 6.65142 11.8986 7.03034C11.7873 7.21174 11.7098 7.40702 11.6548 7.61127C11.5709 7.92077 11.5412 8.23743 11.5288 8.55634C11.5251 8.65577 11.5265 8.75476 11.5265 8.85419C11.526 10.0205 11.526 11.1869 11.5265 12.3532C11.5265 12.3846 11.5297 12.4164 11.532 12.4553H17.2906C17.0408 14.3513 16.7919 16.2374 16.5421 18.1298H16.0829H15.6292H15.1686H14.7149H14.2612H13.8075H13.3537H12.9H12.4394C12.2882 18.1298 12.1369 18.1289 11.9857 18.1302C11.8354 18.1311 11.6851 18.1249 11.5256 18.1347V32.7345H5.53053C5.52915 32.6969 5.5264 32.6633 5.5264 32.6292C5.5264 27.8412 5.5264 23.0536 5.5264 18.2655C5.5264 18.2377 5.52686 18.21 5.52549 18.1822C5.52503 18.167 5.51999 18.1522 5.5154 18.1293H0.504787C0.503412 18.0881 0.500204 18.0541 0.500204 18.02C0.500204 16.5881 0.500204 15.1562 0.500204 13.7242C0.500204 13.3314 0.499745 12.9391 0.500204 12.5462C0.500204 12.5176 0.504788 12.4885 0.507537 12.4549H1.51397H2.51352H3.51996C3.85314 12.4549 4.18633 12.4549 4.51951 12.4549C4.85178 12.4549 5.18405 12.4549 5.5264 12.4544V12.3501C5.5264 10.9893 5.52594 9.62906 5.52686 8.26879C5.52686 7.88986 5.54428 7.51139 5.58369 7.1347C5.6176 6.80863 5.66802 6.48435 5.73676 6.16365C5.8715 5.54017 6.07178 4.93864 6.36005 4.36578C6.85639 3.3795 7.56126 2.56924 8.49482 1.95159C9.08603 1.56057 9.72903 1.27705 10.4124 1.07863C10.7946 0.96755 11.1841 0.886032 11.5787 0.830493C11.763 0.804962 11.9486 0.78615 12.1342 0.771817C12.3528 0.754349 12.5723 0.735538 12.7914 0.734494C13.2781 0.733299 13.7648 0.741361 14.2511 0.747184C14.4069 0.749423 14.5627 0.755245 14.7186 0.761964C14.9757 0.773161 15.2328 0.787047 15.4899 0.800036C15.6856 0.809442 15.8808 0.819743 16.0765 0.830493C16.1521 0.834524 16.2273 0.839899 16.3025 0.846169C16.5096 0.862742 16.7168 0.878865 16.923 0.897677C17.0921 0.912906 17.2608 0.931719 17.4299 0.948739C17.4528 0.950978 17.4766 0.949187 17.5 0.949187Z" fill="#282828"/>
</svg>
