<svg width="30" height="30" viewBox="0 0 30 30" fill="none" xmlns="http://www.w3.org/2000/svg">
<path fill-rule="evenodd" clip-rule="evenodd" d="M14.5675 0.734375C17.2708 0.817351 19.5441 0.811925 21.8049 0.974367C24.8563 1.19362 27.2478 2.54103 28.6102 5.3801C29.2411 6.69464 29.4656 8.1145 29.4758 9.55254C29.5028 13.3695 29.5173 17.187 29.4639 21.0033C29.4498 22.0313 29.2951 23.0908 29.0006 24.0753C28.0431 27.2795 25.7675 29.0702 22.493 29.4832C20.5681 29.726 18.6046 29.7286 16.6581 29.7327C13.8373 29.7385 11.011 29.7379 8.19667 29.5735C5.27215 29.4024 2.9301 28.1169 1.52275 25.447C0.798681 24.0731 0.539879 22.5722 0.527999 21.0451C0.497816 17.1995 0.478871 13.3525 0.542126 9.50786C0.560108 8.41066 0.7396 7.27452 1.07996 6.23189C2.08337 3.15984 4.34515 1.43489 7.50824 1.07553C9.98644 0.794372 12.5 0.824054 14.5675 0.734375ZM14.9939 8.05258C10.9661 8.05673 7.73493 11.2692 7.73236 15.2725C7.72948 19.2739 10.959 22.493 14.9852 22.5023C19.0265 22.5116 22.2788 19.2777 22.2689 15.2597C22.2586 11.2568 19.0204 8.04875 14.9939 8.05258ZM15.0308 10.9389C17.4281 10.9523 19.374 12.9083 19.3656 15.2965C19.3573 17.6788 17.3918 19.6202 14.992 19.616C12.5764 19.6119 10.6174 17.6425 10.6357 15.2361C10.6537 12.856 12.6281 10.9255 15.0308 10.9389ZM22.6581 5.88434C21.6479 5.87732 20.849 6.64805 20.8339 7.6444C20.8182 8.67012 21.6023 9.47404 22.6253 9.48106C23.6348 9.48776 24.4343 8.71608 24.4501 7.72004C24.4661 6.69528 23.6817 5.89136 22.6581 5.88434Z" fill="#282828"/>
</svg>
