<svg width="34" height="28" viewBox="0 0 34 28" fill="none" xmlns="http://www.w3.org/2000/svg">
<path fill-rule="evenodd" clip-rule="evenodd" d="M10.4641 21.8692C8.32931 21.7547 6.58636 20.8855 5.25385 19.2103C4.7085 18.5239 4.25715 17.5617 4.18324 17.1354C5.18639 17.3154 6.17735 17.2852 7.16112 17.0079C6.91787 16.9236 6.66744 16.8682 6.42562 16.7861C6.18022 16.7025 5.93912 16.6068 5.70304 16.498C5.46696 16.39 5.23878 16.2654 5.01777 16.1293C4.79676 15.9939 4.58364 15.8448 4.37914 15.6842C4.17463 15.5236 3.98089 15.3507 3.79504 15.1692C3.60848 14.9878 3.43698 14.7926 3.27337 14.5909C3.11192 14.3914 2.96554 14.1819 2.82777 13.9665C2.68713 13.7476 2.56084 13.52 2.44818 13.2859C2.3348 13.0511 2.23435 12.8113 2.14967 12.565C2.06572 12.3187 1.99253 12.0695 1.93584 11.8153C1.87915 11.5611 1.83825 11.3039 1.80955 11.0454C1.78085 10.7876 1.77582 10.529 1.76362 10.2409C2.25372 10.5024 2.73664 10.7062 3.24467 10.8466C3.74912 10.9863 4.26146 11.0699 4.79676 11.0872C4.78241 11.018 4.73433 11.0015 4.69917 10.9763C4.28801 10.6846 3.91272 10.3511 3.5769 9.97518C2.68426 8.97771 2.12958 7.81603 1.91144 6.49302C1.8239 5.968 1.8074 5.43937 1.84399 4.91075C1.9136 3.91327 2.1956 2.97558 2.67852 2.09982C2.69502 2.07101 2.70578 2.03644 2.75027 2.01699C5.66429 5.50419 9.32529 7.76921 13.772 8.7278C14.7436 8.93665 15.7274 9.06341 16.7133 9.10662C16.7499 9.04972 16.7305 9.00939 16.7212 8.96834C16.5849 8.33817 16.5497 7.69935 16.5935 7.0591C16.6573 6.13292 16.9035 5.25356 17.3311 4.42894C17.9712 3.1938 18.9004 2.24026 20.1153 1.56903C20.8378 1.16932 21.6099 0.917252 22.4265 0.80058C22.8872 0.735042 23.3507 0.717037 23.8136 0.751607C25.3477 0.863237 26.6996 1.42211 27.8599 2.44191C27.9941 2.56002 28.129 2.67813 28.2474 2.81281C28.3041 2.87763 28.36 2.88627 28.4375 2.87043C28.7705 2.79913 29.1013 2.71991 29.4285 2.62628C30.3513 2.36125 31.2367 2.00259 32.0849 1.55103C32.2349 1.47108 32.382 1.38538 32.5305 1.30256C32.552 1.29031 32.5721 1.27375 32.6138 1.27663C32.5205 1.58992 32.3935 1.8816 32.2528 2.16752C32.1115 2.45487 31.95 2.72999 31.7699 2.99502C31.5898 3.26006 31.3903 3.50924 31.175 3.74547C30.9591 3.98169 30.7273 4.20135 30.4812 4.40589C30.2379 4.60827 29.9774 4.78904 29.7191 4.97845C30.375 4.92155 31.0129 4.7912 31.6422 4.61835C32.2736 4.4455 32.89 4.228 33.5 3.96081C33.5014 4.00978 33.4763 4.03355 33.4583 4.05947C33.1369 4.52688 32.791 4.97557 32.4157 5.4012C32.2184 5.62446 32.0175 5.84485 31.8051 6.05442C31.3379 6.51607 30.845 6.94747 30.3176 7.33925C30.2838 7.36446 30.2508 7.39111 30.2157 7.4156C30.1726 7.44584 30.1618 7.48257 30.164 7.53659C30.1841 8.02632 30.1891 8.5175 30.1683 9.00795C30.1001 10.6478 29.8318 12.2546 29.3639 13.8282C29.0245 14.9719 28.5918 16.0781 28.0594 17.1455C27.326 18.6176 26.4298 19.983 25.3606 21.2326C24.9502 21.7115 24.5189 22.1717 24.0626 22.6067C22.2342 24.3482 20.1425 25.6668 17.776 26.5426C16.6401 26.9632 15.4726 27.2657 14.2779 27.463C13.6486 27.5667 13.0157 27.6359 12.3785 27.6827C11.5978 27.7396 10.8157 27.7453 10.0335 27.7201C9.48172 27.7021 8.93135 27.6495 8.38241 27.579C7.352 27.4457 6.33808 27.2311 5.3421 26.9337C3.67736 26.436 2.11021 25.7245 0.637053 24.8012C0.594716 24.7752 0.548794 24.7529 0.5 24.6967C1.69402 24.8293 2.86939 24.8098 4.04188 24.6384C5.21366 24.4677 6.34382 24.1501 7.43236 23.6827C8.52234 23.2153 9.53553 22.6175 10.4641 21.8692Z" fill="#282828"/>
</svg>
