<svg width="20" height="20" viewBox="0 0 20 20" fill="none" xmlns="http://www.w3.org/2000/svg">
<path fill-rule="evenodd" clip-rule="evenodd" d="M6.50012 0.5H13.5001C16.8138 0.5 19.5001 3.18629 19.5001 6.5V13.5C19.5001 16.8137 16.8138 19.5 13.5001 19.5H6.50012C3.18641 19.5 0.500122 16.8137 0.500122 13.5V6.5C0.500122 3.18629 3.18641 0.5 6.50012 0.5ZM13.5001 18C15.9831 17.9945 17.9946 15.983 18.0001 13.5V6.5C17.9946 4.017 15.9831 2.0055 13.5001 2H6.50012C4.01712 2.0055 2.00562 4.017 2.00012 6.5V13.5C2.00562 15.983 4.01712 17.9945 6.50012 18H13.5001Z" fill="white"/>
<path d="M13.1801 5C12.7682 5.00539 12.4355 5.33804 12.4301 5.75C12.4197 6.38126 12.1568 6.98203 11.7001 7.41801C11.2435 7.85398 10.6312 8.08881 10.0001 8.07C8.70029 8.1093 7.61361 7.0897 7.57012 5.79C7.57012 5.37579 7.23434 5.04 6.82012 5.04C6.40591 5.04 6.07012 5.37579 6.07012 5.79C6.11388 7.91804 7.87199 9.60905 10.0001 9.57C12.1283 9.60905 13.8864 7.91804 13.9301 5.79C13.9411 5.58425 13.867 5.38304 13.7251 5.23362C13.5833 5.08419 13.3862 4.99971 13.1801 5Z" fill="white"/>
</svg>
